<svg width="399" height="409" fill="none" xmlns="http://www.w3.org/2000/svg"><g opacity=".7"><path d="M118.197 72.048s-64.147 32.678-96.14 83.034c-31.992 50.356-29.461 115.137 9.415 163.224 38.875 48.086 113.181 41.771 175.397 72.231 62.217 30.461 130.859 24.188 160.278-40.348 29.419-64.537-14.942-88.656-22.562-163.343-7.619-74.686-74.949-184.05-226.388-114.798z" fill="#3E54D8"/><path d="M118.803 161.936a227.588 227.588 0 00-30.017-12.16c-14.816-4.561-32.297-.385-32.682 4.55-.385 4.935 2.25 2.675 5.705 8.026 3.456 5.351 1.895 17.856 6.84 29.257 4.946 11.4 19.752 17.096 19.752 17.096l30.402-46.769z" fill="#92E3A9" stroke="#263238" stroke-width=".265" stroke-linecap="round" stroke-linejoin="round"/><path opacity=".3" d="M108.922 172.963s-22.8-14.441-36.097-19.387c-13.295-4.945-14.056 2.28-14.056 2.28a11.038 11.038 0 017.226 10.773c0 8.533 4.266 26.206 14.633 29.854 10.368 3.649 28.294-23.52 28.294-23.52z" fill="#000"/><path d="M271.62 189.099c5.959-2.264 8.82-9.286 6.389-15.685-2.431-6.399-9.232-9.751-15.191-7.487-5.96 2.263-8.82 9.286-6.39 15.684 2.431 6.399 9.233 9.751 15.192 7.488z" fill="#92E3A9" stroke="#263238" stroke-width=".265" stroke-linecap="round" stroke-linejoin="round"/><path d="M108.242 310.125l12.789 38.367a5.215 5.215 0 004.956 3.567h19.933a5.207 5.207 0 004.794-3.151l8.917-20.694" fill="#92E3A9"/><path opacity=".3" d="M114.66 310.125l10.58 38.367a4.489 4.489 0 004.114 3.567h16.529a4.37 4.37 0 003.972-3.151l7.398-20.694" fill="#000"/><path d="M108.242 310.125l12.789 38.367a5.215 5.215 0 004.956 3.567h19.933a5.207 5.207 0 004.794-3.151l8.917-20.694" stroke="#263238" stroke-width=".265" stroke-linecap="round" stroke-linejoin="round"/><path d="M204.433 310.125l-12.779 38.367a5.219 5.219 0 01-4.955 3.567h-19.914a5.206 5.206 0 01-4.793-3.151l-8.918-20.694" fill="#263238"/><path d="M204.433 310.125l-12.779 38.367a5.219 5.219 0 01-4.955 3.567h-19.914a5.206 5.206 0 01-4.793-3.151l-8.918-20.694" stroke="#263238" stroke-width=".265" stroke-linecap="round" stroke-linejoin="round"/><path d="M246.784 310.125l-12.789 38.367a5.215 5.215 0 01-4.956 3.567h-19.933a5.207 5.207 0 01-4.794-3.151l-8.917-20.694" fill="#92E3A9"/><path opacity=".3" d="M237.724 310.125l-8.745 38.367c-.487 2.128-1.844 3.567-3.385 3.567h-13.63c-1.419 0-2.706-1.236-3.273-3.151l-8.472-20.268" fill="#000"/><path d="M246.784 310.125l-12.789 38.367a5.215 5.215 0 01-4.956 3.567h-19.933a5.207 5.207 0 01-4.794-3.151l-8.917-20.694" stroke="#263238" stroke-width=".265" stroke-linecap="round" stroke-linejoin="round"/><path d="M178.439 335.369c60.541 0 109.619-44.509 109.619-99.414s-49.078-99.414-109.619-99.414S68.82 181.05 68.82 235.955s49.078 99.414 109.619 99.414z" fill="#90E0A7"/><path opacity=".3" d="M253.942 168.027a91.325 91.325 0 019.779 41.104c0 54.905-49.079 99.414-109.619 99.414a116.915 116.915 0 01-63.59-18.424c19.112 25.649 51.47 42.563 88.165 42.563 58.777 0 106.407-43.181 106.407-96.455-.061-26.663-11.959-50.751-31.142-68.202z" fill="#000"/><path d="M178.439 335.369c60.541 0 109.619-44.509 109.619-99.414s-49.078-99.414-109.619-99.414S68.82 181.05 68.82 235.955s49.078 99.414 109.619 99.414z" stroke="#263238" stroke-width=".265" stroke-linecap="round" stroke-linejoin="round"/><path d="M278.836 244.873c-2.392 20.025-11.624 38.195-25.527 52.545m23.714-83.383a87.28 87.28 0 012.433 20.481" stroke="#92E3A9" stroke-width=".53" stroke-linecap="round" stroke-linejoin="round"/><path d="M151 144c11.764-2.003 17.419-3.01 29.5-3 7.735-.001 15.5 0 35.5 6.5" stroke="#263238" stroke-width="2" stroke-linecap="round" stroke-linejoin="round"/><path d="M200.943 218.14s10.64-7.225 11.026-20.521c.385-13.296-17.107-32.672-31.162-40.657-14.056-7.986-24.322-6.456-24.697-.76-.375 5.695-5.32 12.16-7.215 23.176-1.895 11.016-2.665 27.362 12.161 32.682" fill="#92E3A9"/><path d="M200.943 218.14s10.64-7.225 11.026-20.521c.385-13.296-17.107-32.672-31.162-40.657-14.056-7.986-24.322-6.456-24.697-.76-.375 5.695-5.32 12.16-7.215 23.176-1.895 11.016-2.665 27.362 12.161 32.682" stroke="#263238" stroke-width=".265" stroke-linecap="round" stroke-linejoin="round"/><path opacity=".3" d="M178.054 213.875l2.179.324c9.344 1.348 12.627-4.753 12.354-13.914-.375-12.921-17.471-40.282-24.697-44.083-7.225-3.8-9.495 1.521-9.495 1.521s1.013.679-2.544 12.485c-1.642 5.452-7.753 24.463-1.703 32.894 5.351 7.449 15.293 9.486 23.906 10.773zm30.267-13.093h-.142a1.012 1.012 0 01-.871-1.145c.11-.779.174-1.564.192-2.351.203-7.094-5.583-17.279-15.099-26.673a1.02 1.02 0 01-.229-1.107 1.026 1.026 0 01.547-.555 1.018 1.018 0 011.111.213c10.053 9.931 15.92 20.461 15.697 28.172a24.121 24.121 0 01-.203 2.575 1.014 1.014 0 01-1.003.871zm-5.453 12.22a1.013 1.013 0 01-.79-1.652 24.897 24.897 0 003.952-6.81 1.015 1.015 0 011.872-.055c.11.245.119.524.023.775a26.811 26.811 0 01-4.276 7.367 1.014 1.014 0 01-.781.375zm-74.796 42.188c2.997-12.011-7.45-24.962-23.333-28.925-15.884-3.963-31.19 2.561-34.187 14.573-2.997 12.012 7.45 24.963 23.333 28.926 15.884 3.963 31.19-2.562 34.187-14.574z" fill="#000"/><path d="M126.646 253.009c2.997-12.012-7.449-24.963-23.333-28.926-15.884-3.963-31.19 2.562-34.187 14.574-2.997 12.012 7.45 24.962 23.333 28.925 15.884 3.963 31.19-2.561 34.187-14.573z" fill="#92E3A9" stroke="#263238" stroke-width=".265" stroke-linecap="round" stroke-linejoin="round"/><path d="M88.94 242.208c.181 2.716-.862 5.007-2.322 5.067-1.459.061-2.807-2.026-3.04-4.742-.233-2.716.862-5.017 2.331-5.067 1.47-.051 2.848 2.016 3.03 4.742zm20.081 5.036c.183 2.726-.861 5.007-2.321 5.067-1.459.061-2.807-2.026-3.04-4.752-.233-2.727.862-5.007 2.331-5.067 1.469-.061 2.817 2.026 3.03 4.752z" stroke="#263238" stroke-width=".265" stroke-linecap="round" stroke-linejoin="round"/><path d="M142.171 254.287a23.625 23.625 0 01-1.358 5.706c-5.817 15.717-26.875 22.517-47.68 15.748m45.644-22.944h6.456" stroke="#263238" stroke-width=".795" stroke-linecap="round" stroke-linejoin="round"/><path d="M97.655 210.722c-.71 2.949-2.524 5.067-4.054 4.682-1.53-.386-2.199-3.041-1.48-6.02.72-2.979 2.524-5.067 4.054-4.692 1.53.375 2.2 3.071 1.48 6.03zm18.685 4.073c.713-2.96.052-5.658-1.477-6.026-1.529-.369-3.346 1.732-4.06 4.692-.713 2.96-.052 5.658 1.477 6.026 1.529.369 3.347-1.732 4.06-4.692z" fill="#263238" stroke="#263238" stroke-width=".265" stroke-linecap="round" stroke-linejoin="round"/><path d="M144.25 322.468l11.147 26.45a5.23 5.23 0 004.814 3.192h20.268a5.232 5.232 0 004.793-3.141l12.161-28.102h-.527" fill="#92E3A9"/><path opacity=".3" d="M167.801 319.095c-6.425 0-13.903.841-19.953-.557l10.417 30.331a4.386 4.386 0 003.983 3.192h16.701a4.365 4.365 0 003.952-3.142l10.083-30.939-4.053.558c-12.86 1.398-12.526.557-21.13.557z" fill="#000"/><path d="M144.25 322.468l11.147 26.45a5.23 5.23 0 004.814 3.192h20.268a5.232 5.232 0 004.793-3.141l12.161-28.102h-.527" stroke="#263238" stroke-width=".265" stroke-linecap="round" stroke-linejoin="round"/><path d="M177.648 110.717l2.165 8.15 33.676-8.15 31.512-82.564-20.644-7.061-46.709 89.625z" fill="#fff" stroke="#263238" stroke-width=".325" stroke-linecap="round" stroke-linejoin="round"/><path d="M187.96 1l46.708 17.39-22.809 103.194L157 104.746 187.96 1z" fill="#fff" stroke="#263238" stroke-width=".325" stroke-linecap="round" stroke-linejoin="round"/><path d="M158.836 98.58l48.679 14.316 21.182-91.804L186.049 7.39l-27.213 91.19z" fill="#92E3A9" stroke="#263238" stroke-width=".325" stroke-linecap="round" stroke-linejoin="round"/><path d="M185.852 30.094a15.388 15.388 0 00-6.493-.298l-12.718 42.618a15.234 15.234 0 006.583 3.776c9.971 2.747 20.898-5.358 24.391-18.092 3.493-12.733-1.806-25.272-11.763-28.004z" fill="#fff" stroke="#263238" stroke-width=".325" stroke-linecap="round" stroke-linejoin="round"/><path d="M184.048 37.155a.311.311 0 01-.179-.343l.567-2.21a.66.66 0 00-.538-.88l-2.373-.568a.64.64 0 00-.881.538l-.462 2.284a.3.3 0 01-.314.224 11.932 11.932 0 00-2.433 0l-4.344 14.584c3.389 3.523 8.673 5.284 7.971 8.24-.403 1.672-1.925 2.985-4.597 2.388a3.925 3.925 0 01-3.255-4.97l.135-.598c.074-.328-.12-.597-.582-.701l-.911-.224-2.582 8.628a10.715 10.715 0 003.567 2.15.31.31 0 01.154.146.31.31 0 01.025.212l-.537 1.896a.631.631 0 00.537.88l2.463.597a.646.646 0 00.796-.158.64.64 0 00.13-.26l.403-1.88a.342.342 0 01.328-.24c5.255.553 8.822-2.03 9.927-6.627.866-3.672-.373-6.792-4.209-9.733-3.508-2.657-7.21-3.97-6.569-6.687.448-1.881 2.165-2.747 4.479-2.195a4.022 4.022 0 012.789 1.873 4.013 4.013 0 01.39 3.337l-.104.418c0 .254.149.478.612.597l4.374 1.045a.653.653 0 00.781-.26.668.668 0 00.099-.277l.329-1.389c1-4.373-1.105-8.09-5.986-9.837z" fill="#263238"/><path d="M60.648 352.068h336.933m-366.71 0h15.315" stroke="#1B2124" stroke-linecap="round" stroke-linejoin="round"/></g></svg>