<svg>
    <defs>

        <symbol id="arrow" width="11" height="17" viewBox="0 0 11 17" xmlns="http://www.w3.org/2000/svg">
            <path d="M9.99666 9.34159L2.68691 16.6511C2.22192 17.1163 1.46803 17.1163 1.00326 16.6511C0.538463 16.1863 0.538463 15.4324 1.00326 14.9677L7.47126 8.49988L1.00345 2.03231C0.538651 1.56732 0.538651 0.813539 1.00345 0.34874C1.46825 -0.116247 2.22211 -0.116247 2.6871 0.34874L9.99685 7.65836C10.2292 7.89087 10.3453 8.19528 10.3453 8.49984C10.3453 8.80455 10.229 9.10919 9.99666 9.34159Z"/>
        </symbol>

        <symbol id="arrow_big_grey" width="182" height="455" viewBox="0 0 182 455" fill="none" xmlns="http://www.w3.org/2000/svg">
            <path d="M245 439L32 226L242 16" stroke="#F2F2F2" stroke-width="45"/>
        </symbol>

        <symbol id="arrow_big_yellow" width="257" height="721" viewBox="0 0 257 721" fill="none" xmlns="http://www.w3.org/2000/svg">
            <path d="M363 720L1 357.95L357.901 1" stroke="#F9B233"/>
        </symbol>

        <symbol id="icon_facebook" width="9" height="17" viewBox="0 0 9 17" xmlns="http://www.w3.org/2000/svg">
            <path d="M0.480492 9.0542H2.34397V16.7258C2.34397 16.8773 2.4667 17 2.61816 17H5.77775C5.92921 17 6.05194 16.8773 6.05194 16.7258V9.09034H8.19416C8.33345 9.09034 8.45064 8.98582 8.46654 8.84746L8.7919 6.02315C8.80084 5.94545 8.77622 5.86763 8.72423 5.80934C8.67219 5.75099 8.59772 5.71759 8.51957 5.71759H6.05205V3.94718C6.05205 3.41349 6.33941 3.14286 6.90622 3.14286C6.987 3.14286 8.51957 3.14286 8.51957 3.14286C8.67104 3.14286 8.79377 3.02008 8.79377 2.86867V0.276223C8.79377 0.124758 8.67104 0.00202903 8.51957 0.00202903H6.29614C6.28045 0.00126129 6.24563 0 6.1943 0C5.80851 0 4.46754 0.0757322 3.40828 1.05022C2.23462 2.1301 2.39776 3.42309 2.43675 3.64727V5.71754H0.480492C0.329028 5.71754 0.206299 5.84027 0.206299 5.99173V8.77995C0.206299 8.93142 0.329028 9.0542 0.480492 9.0542Z"/>
        </symbol>

        <symbol id="icon_vk" width="20" height="12" viewBox="0 0 20 12" xmlns="http://www.w3.org/2000/svg">
            <path d="M17.7331 5.0652C18.0175 4.69754 18.2433 4.40254 18.41 4.17997C19.6109 2.58331 20.1315 1.56336 19.9719 1.11868L19.9093 1.01453C19.8678 0.951979 19.7599 0.894534 19.5865 0.842537C19.4129 0.790577 19.1908 0.782274 18.9202 0.816576L15.9213 0.837728C15.8518 0.830815 15.7824 0.83243 15.7129 0.842537C15.6435 0.853094 15.5985 0.863689 15.5775 0.873795C15.5566 0.88439 15.5393 0.892881 15.5255 0.899794L15.484 0.931052C15.4492 0.951753 15.4111 0.988309 15.3695 1.04053C15.3278 1.09272 15.2929 1.1532 15.2653 1.22286C14.939 2.06278 14.5677 2.84386 14.1511 3.56585C13.8942 3.99629 13.6581 4.3697 13.4431 4.68514C13.2279 5.0013 13.0474 5.23378 12.9016 5.38275C12.7559 5.53197 12.6238 5.65197 12.5059 5.74192C12.3878 5.8325 12.2976 5.87044 12.2353 5.85666C12.1727 5.84287 12.1137 5.82908 12.0583 5.8148C11.961 5.75251 11.8828 5.66764 11.824 5.55981C11.7649 5.45248 11.7251 5.317 11.7042 5.15376C11.6835 4.99074 11.6711 4.85004 11.6678 4.73184C11.6642 4.61391 11.666 4.44744 11.6731 4.23197C11.68 4.01673 11.6835 3.87122 11.6835 3.79465C11.6835 3.53114 11.6888 3.24466 11.6992 2.93565C11.7095 2.62686 11.7183 2.38198 11.7251 2.20145C11.732 2.02119 11.7355 1.83011 11.7355 1.62869C11.7355 1.42773 11.7233 1.26952 11.6988 1.15482C11.6745 1.04053 11.6379 0.929474 11.5897 0.821648C11.5409 0.714272 11.4698 0.630791 11.376 0.571956C11.2823 0.512858 11.1661 0.466196 11.0273 0.431218C10.6591 0.347737 10.1905 0.303141 9.62146 0.295815C8.33017 0.282478 7.50059 0.365696 7.1327 0.545958C6.98693 0.622526 6.85494 0.726445 6.73701 0.858429C6.61194 1.01134 6.59469 1.09478 6.68505 1.10812C7.10167 1.17067 7.39648 1.32013 7.57005 1.55603L7.63261 1.68088C7.68111 1.77146 7.72965 1.93106 7.77838 2.16005C7.82692 2.38908 7.85818 2.64245 7.87219 2.92021C7.90691 3.42695 7.90691 3.86063 7.87219 4.22186C7.83748 4.58306 7.8046 4.86405 7.77335 5.06501C7.74205 5.26643 7.69516 5.42945 7.63283 5.55429C7.57028 5.67959 7.52869 5.75593 7.50776 5.78373C7.48684 5.81131 7.46959 5.82878 7.4558 5.83573C7.36545 5.87022 7.27186 5.88769 7.17463 5.88769C7.07736 5.88769 6.95939 5.83892 6.82053 5.74165C6.68163 5.64487 6.53748 5.51105 6.38847 5.34089C6.23902 5.171 6.07093 4.93303 5.8833 4.62743C5.6959 4.32233 5.50137 3.96109 5.30018 3.5447L5.1337 3.24256C5.02956 3.04851 4.88721 2.76546 4.70672 2.39411C4.52623 2.02277 4.36641 1.66363 4.22777 1.31622C4.17213 1.17068 4.08888 1.05962 3.97786 0.98305L3.9259 0.951791C3.89118 0.924177 3.83554 0.894534 3.7592 0.863464C3.68263 0.832205 3.60309 0.809663 3.51961 0.795649L0.66642 0.816351C0.374875 0.816351 0.177143 0.882587 0.0729989 1.01453L0.0313711 1.07686C0.0103318 1.1118 0 1.16744 0 1.24356C0 1.32013 0.0209266 1.41372 0.0625544 1.52455C0.47917 2.50359 0.932154 3.44769 1.42143 4.35682C1.91097 5.26643 2.33611 5.99897 2.69709 6.55426C3.05806 7.11 3.42595 7.63376 3.80098 8.12672C4.176 8.61968 4.42408 8.93535 4.54547 9.07402C4.66686 9.21314 4.76228 9.31732 4.83175 9.38649L5.09204 9.63663C5.25851 9.80314 5.50339 10.0027 5.82623 10.2354C6.14904 10.4681 6.50637 10.6971 6.89886 10.9224C7.29091 11.1482 7.74754 11.3319 8.26807 11.4745C8.78864 11.617 9.29539 11.6743 9.78835 11.6462H10.9859C11.2289 11.6255 11.4128 11.5494 11.5377 11.4172L11.5793 11.3652C11.6069 11.3238 11.6331 11.2595 11.6574 11.1728C11.6816 11.0861 11.6941 10.9904 11.6941 10.8865C11.6869 10.5881 11.7097 10.3186 11.7616 10.0795C11.8136 9.83989 11.8727 9.65962 11.9387 9.53778C12.0047 9.41658 12.0792 9.31405 12.1626 9.23057C12.2459 9.14709 12.3047 9.0972 12.3397 9.07973C12.3744 9.06271 12.4023 9.05054 12.423 9.04317C12.5894 8.98772 12.7855 9.04156 13.0113 9.20457C13.2369 9.36808 13.4487 9.56901 13.6466 9.80859C13.8443 10.0482 14.0821 10.317 14.3599 10.6156C14.6374 10.9141 14.8804 11.1362 15.0887 11.2819L15.297 11.4073C15.4359 11.4903 15.6162 11.5666 15.8385 11.6363C16.0606 11.7055 16.2552 11.723 16.4216 11.6883L19.0874 11.6464C19.3511 11.6464 19.556 11.6032 19.7018 11.5163C19.8475 11.43 19.9343 11.3339 19.9621 11.23C19.9897 11.1259 19.9915 11.0084 19.9674 10.8761C19.943 10.7444 19.9187 10.6524 19.8945 10.6005C19.8702 10.5485 19.8476 10.5048 19.8267 10.4703C19.4795 9.8456 18.8166 9.0783 17.8378 8.16895L17.8168 8.14825L17.8065 8.13769L17.7962 8.12755H17.7857C17.3413 7.70402 17.0603 7.41935 16.9423 7.27335C16.7271 6.99608 16.6784 6.71487 16.7966 6.43024C16.8793 6.2144 17.1916 5.75961 17.7331 5.0652Z"/>
        </symbol>

        <symbol id="icon_instagram" width="16" height="16" viewBox="0 0 16 16" xmlns="http://www.w3.org/2000/svg">
            <path d="M2.05366 0H13.9463C15.0758 0 15.9998 0.836183 15.9998 2.05349V13.9465C15.9998 15.1638 15.0758 16 13.9463 16H2.05366C0.923908 16 0 15.1638 0 13.9465V2.05349C0 0.836183 0.923908 0 2.05366 0ZM11.6553 1.77767C11.2591 1.77767 10.9353 2.10163 10.9353 2.49803V4.22215C10.9353 4.61839 11.2591 4.94251 11.6553 4.94251H13.4637C13.8599 4.94251 14.1841 4.61839 14.1841 4.22215V2.49803C14.1841 2.10163 13.8599 1.77767 13.4637 1.77767H11.6553ZM14.1916 6.76634H12.7834C12.9166 7.20136 12.9888 7.66216 12.9888 8.1389C12.9888 10.8002 10.7618 12.9575 8.0152 12.9575C5.26877 12.9575 3.04213 10.8002 3.04213 8.1389C3.04213 7.66183 3.11408 7.20119 3.24748 6.76634H1.778V13.525C1.778 13.8747 2.06417 14.1611 2.41409 14.1611H13.5559C13.9058 14.1611 14.1919 13.8749 14.1919 13.525V6.76634H14.1916ZM8.01503 4.85167C6.24049 4.85167 4.80173 6.24558 4.80173 7.96526C4.80173 9.68493 6.24049 11.0788 8.01503 11.0788C9.78974 11.0788 11.2287 9.68493 11.2287 7.96526C11.2287 6.24558 9.78991 4.85167 8.01503 4.85167Z"/>
        </symbol>

        <symbol id="icon_logout" viewBox="0 0 512.016 512" xmlns="http://www.w3.org/2000/svg">
            <path d="m496 240.007812h-202.667969c-8.832031 0-16-7.167968-16-16 0-8.832031 7.167969-16 16-16h202.667969c8.832031 0 16 7.167969 16 16 0 8.832032-7.167969 16-16 16zm0 0"/><path d="m416 320.007812c-4.097656 0-8.191406-1.558593-11.308594-4.691406-6.25-6.253906-6.25-16.386718 0-22.636718l68.695313-68.691407-68.695313-68.695312c-6.25-6.25-6.25-16.382813 0-22.632813 6.253906-6.253906 16.386719-6.253906 22.636719 0l80 80c6.25 6.25 6.25 16.382813 0 22.632813l-80 80c-3.136719 3.15625-7.230469 4.714843-11.328125 4.714843zm0 0"/><path d="m170.667969 512.007812c-4.566407 0-8.898438-.640624-13.226563-1.984374l-128.386718-42.773438c-17.46875-6.101562-29.054688-22.378906-29.054688-40.574219v-384c0-23.53125 19.136719-42.6679685 42.667969-42.6679685 4.5625 0 8.894531.6406255 13.226562 1.9843755l128.382813 42.773437c17.472656 6.101563 29.054687 22.378906 29.054687 40.574219v384c0 23.53125-19.132812 42.667968-42.664062 42.667968zm-128-480c-5.867188 0-10.667969 4.800782-10.667969 10.667969v384c0 4.542969 3.050781 8.765625 7.402344 10.28125l127.785156 42.582031c.917969.296876 2.113281.46875 3.480469.46875 5.867187 0 10.664062-4.800781 10.664062-10.667968v-384c0-4.542969-3.050781-8.765625-7.402343-10.28125l-127.785157-42.582032c-.917969-.296874-2.113281-.46875-3.476562-.46875zm0 0"/><path d="m325.332031 170.675781c-8.832031 0-16-7.167969-16-16v-96c0-14.699219-11.964843-26.667969-26.664062-26.667969h-240c-8.832031 0-16-7.167968-16-16 0-8.832031 7.167969-15.9999995 16-15.9999995h240c32.363281 0 58.664062 26.3046875 58.664062 58.6679685v96c0 8.832031-7.167969 16-16 16zm0 0"/><path d="m282.667969 448.007812h-85.335938c-8.832031 0-16-7.167968-16-16 0-8.832031 7.167969-16 16-16h85.335938c14.699219 0 26.664062-11.96875 26.664062-26.667968v-96c0-8.832032 7.167969-16 16-16s16 7.167968 16 16v96c0 32.363281-26.300781 58.667968-58.664062 58.667968zm0 0"/>
        </symbol>

        <symbol id="icon_user" viewBox="-42 0 512 512.001" xmlns="http://www.w3.org/2000/svg">
            <path d="m210.351562 246.632812c33.882813 0 63.21875-12.152343 87.195313-36.128906 23.96875-23.972656 36.125-53.304687 36.125-87.191406 0-33.875-12.152344-63.210938-36.128906-87.191406-23.976563-23.96875-53.3125-36.121094-87.191407-36.121094-33.886718 0-63.21875 12.152344-87.191406 36.125s-36.128906 53.308594-36.128906 87.1875c0 33.886719 12.15625 63.222656 36.128906 87.195312 23.980469 23.96875 53.316406 36.125 87.191406 36.125zm-65.972656-189.292968c18.394532-18.394532 39.972656-27.335938 65.972656-27.335938 25.996094 0 47.578126 8.941406 65.976563 27.335938 18.394531 18.398437 27.339844 39.980468 27.339844 65.972656 0 26-8.945313 47.578125-27.339844 65.976562-18.398437 18.398438-39.980469 27.339844-65.976563 27.339844-25.992187 0-47.570312-8.945312-65.972656-27.339844-18.398437-18.394531-27.34375-39.976562-27.34375-65.976562 0-25.992188 8.945313-47.574219 27.34375-65.972656zm0 0"/><path d="m426.128906 393.703125c-.691406-9.976563-2.089844-20.859375-4.148437-32.351563-2.078125-11.578124-4.753907-22.523437-7.957031-32.527343-3.3125-10.339844-7.808594-20.550781-13.375-30.335938-5.769532-10.15625-12.550782-19-20.160157-26.277343-7.957031-7.613282-17.699219-13.734376-28.964843-18.199219-11.226563-4.441407-23.667969-6.691407-36.976563-6.691407-5.226563 0-10.28125 2.144532-20.042969 8.5-6.007812 3.917969-13.035156 8.449219-20.878906 13.460938-6.707031 4.273438-15.792969 8.277344-27.015625 11.902344-10.949219 3.542968-22.066406 5.339844-33.042969 5.339844-10.96875 0-22.085937-1.796876-33.042968-5.339844-11.210938-3.621094-20.300782-7.625-26.996094-11.898438-7.769532-4.964844-14.800782-9.496094-20.898438-13.46875-9.753906-6.355468-14.808594-8.5-20.035156-8.5-13.3125 0-25.75 2.253906-36.972656 6.699219-11.257813 4.457031-21.003906 10.578125-28.96875 18.199219-7.609375 7.28125-14.390625 16.121094-20.15625 26.273437-5.558594 9.785157-10.058594 19.992188-13.371094 30.339844-3.199219 10.003906-5.875 20.945313-7.953125 32.523437-2.0625 11.476563-3.457031 22.363282-4.148437 32.363282-.679688 9.777344-1.023438 19.953125-1.023438 30.234375 0 26.726562 8.496094 48.363281 25.25 64.320312 16.546875 15.746094 38.4375 23.730469 65.066406 23.730469h246.53125c26.621094 0 48.511719-7.984375 65.0625-23.730469 16.757813-15.945312 25.253906-37.589843 25.253906-64.324219-.003906-10.316406-.351562-20.492187-1.035156-30.242187zm-44.90625 72.828125c-10.933594 10.40625-25.449218 15.464844-44.378906 15.464844h-246.527344c-18.933594 0-33.449218-5.058594-44.378906-15.460938-10.722656-10.207031-15.933594-24.140625-15.933594-42.585937 0-9.59375.316406-19.066407.949219-28.160157.617187-8.921874 1.878906-18.722656 3.75-29.136718 1.847656-10.285156 4.199219-19.9375 6.996094-28.675782 2.683593-8.378906 6.34375-16.675781 10.882812-24.667968 4.332031-7.617188 9.316407-14.152344 14.816407-19.417969 5.144531-4.925781 11.628906-8.957031 19.269531-11.980469 7.066406-2.796875 15.007812-4.328125 23.628906-4.558594 1.050781.558594 2.921875 1.625 5.953125 3.601563 6.167969 4.019531 13.277344 8.605469 21.136719 13.625 8.859375 5.648437 20.273437 10.75 33.910156 15.152344 13.941406 4.507812 28.160156 6.796875 42.273437 6.796875 14.113282 0 28.335938-2.289063 42.269532-6.792969 13.648437-4.410156 25.058594-9.507813 33.929687-15.164063 8.042969-5.140624 14.953125-9.59375 21.121094-13.617187 3.03125-1.972656 4.902344-3.042969 5.953125-3.601563 8.625.230469 16.566406 1.761719 23.636719 4.558594 7.636719 3.023438 14.121093 7.058594 19.265625 11.980469 5.5 5.261719 10.484375 11.796875 14.816406 19.421875 4.542969 7.988281 8.207031 16.289062 10.886719 24.660156 2.800781 8.75 5.15625 18.398438 7 28.675782 1.867187 10.433593 3.132812 20.238281 3.75 29.144531v.007812c.636719 9.058594.957031 18.527344.960937 28.148438-.003906 18.449219-5.214844 32.378906-15.9375 42.582031zm0 0"/>
        </symbol>

        <symbol id="icon_window_max" enable-background="new 0 0 24 24" viewBox="0 0 24 24"  xmlns="http://www.w3.org/2000/svg">
            <g>
                <path d="m15 9.75c-.192 0-.384-.073-.53-.22-.293-.293-.293-.768 0-1.061l8.25-8.25c.293-.293.768-.293 1.061 0s.293.768 0 1.061l-8.25 8.25c-.147.147-.339.22-.531.22z"/></g><g><path d="m20.25 10h-5.5c-.414 0-.75-.336-.75-.75v-5.5c0-.414.336-.75.75-.75s.75.336.75.75v4.75h4.75c.414 0 .75.336.75.75s-.336.75-.75.75z"/></g><g><path d="m17.25 24h-14.5c-1.517 0-2.75-1.233-2.75-2.75v-11.5c0-.981.529-1.89 1.38-2.373.361-.205.818-.077 1.022.283.205.36.078.818-.282 1.022-.388.22-.62.62-.62 1.068v11.5c0 .689.561 1.25 1.25 1.25h14.5c.689 0 1.25-.561 1.25-1.25v-2c0-.414.336-.75.75-.75s.75.336.75.75v2c0 1.517-1.233 2.75-2.75 2.75z"/></g><g><path d="m1.75 12h-1c-.414 0-.75-.336-.75-.75s.336-.75.75-.75h1c.414 0 .75.336.75.75s-.336.75-.75.75z"/></g><g><path d="m21.25 17h-14.5c-1.517 0-2.75-1.233-2.75-2.75v-11.5c0-1.517 1.233-2.75 2.75-2.75h11.5c.414 0 .75.336.75.75s-.336.75-.75.75h-11.5c-.689 0-1.25.561-1.25 1.25v11.5c0 .689.561 1.25 1.25 1.25h14.5c.689 0 1.25-.561 1.25-1.25v-8.5c0-.414.336-.75.75-.75s.75.336.75.75v8.5c0 1.517-1.233 2.75-2.75 2.75z"/></g><g>
                <path d="m11.25 5h-6.5c-.414 0-.75-.336-.75-.75s.336-.75.75-.75h6.5c.414 0 .75.336.75.75s-.336.75-.75.75z"/>
            </g>
        </symbol>

        <symbol id="icon_calendar" xmlns="http://www.w3.org/2000/svg" viewBox="0 0 512 512" style="enable-background:new 0 0 512 512;" xml:space="preserve"><g><g><g><circle cx="386" cy="210" r="20"/><path d="M432,40h-26V20c0-11.046-8.954-20-20-20c-11.046,0-20,8.954-20,20v20h-91V20c0-11.046-8.954-20-20-20 c-11.046,0-20,8.954-20,20v20h-90V20c0-11.046-8.954-20-20-20s-20,8.954-20,20v20H80C35.888,40,0,75.888,0,120v312 c0,44.112,35.888,80,80,80h153c11.046,0,20-8.954,20-20c0-11.046-8.954-20-20-20H80c-22.056,0-40-17.944-40-40V120 c0-22.056,17.944-40,40-40h25v20c0,11.046,8.954,20,20,20s20-8.954,20-20V80h90v20c0,11.046,8.954,20,20,20s20-8.954,20-20V80h91 v20c0,11.046,8.954,20,20,20c11.046,0,20-8.954,20-20V80h26c22.056,0,40,17.944,40,40v114c0,11.046,8.954,20,20,20 c11.046,0,20-8.954,20-20V120C512,75.888,476.112,40,432,40z"/><path d="M391,270c-66.72,0-121,54.28-121,121s54.28,121,121,121s121-54.28,121-121S457.72,270,391,270z M391,472 c-44.663,0-81-36.336-81-81s36.337-81,81-81c44.663,0,81,36.336,81,81S435.663,472,391,472z"/>
            <path d="M420,371h-9v-21c0-11.046-8.954-20-20-20c-11.046,0-20,8.954-20,20v41c0,11.046,8.954,20,20,20h29 c11.046,0,20-8.954,20-20C440,379.954,431.046,371,420,371z"/>
                    <circle cx="299" cy="210" r="20"/><circle cx="212" cy="297" r="20"/><circle cx="125" cy="210" r="20"/><circle cx="125" cy="297" r="20"/><circle cx="125" cy="384" r="20"/><circle cx="212" cy="384" r="20"/><circle cx="212" cy="210" r="20"/>
                </g></g></g>
        </symbol>

        <symbol id="icon_add" xmlns="http://www.w3.org/2000/svg" viewBox="0 0 477.867 477.867" style="enable-background:new 0 0 477.867 477.867;" xml:space="preserve">
            <g><g><path d="M392.533,0h-307.2C38.228,0.056,0.056,38.228,0,85.333v307.2c0.056,47.105,38.228,85.277,85.333,85.333h307.2 c47.105-0.056,85.277-38.228,85.333-85.333v-307.2C477.81,38.228,439.638,0.056,392.533,0z M443.733,392.533 c0,28.277-22.923,51.2-51.2,51.2h-307.2c-28.277,0-51.2-22.923-51.2-51.2v-307.2c0-28.277,22.923-51.2,51.2-51.2h307.2 c28.277,0,51.2,22.923,51.2,51.2V392.533z"/></g></g><g><g><path d="M324.267,221.867H256V153.6c0-9.426-7.641-17.067-17.067-17.067s-17.067,7.641-17.067,17.067v68.267H153.6 c-9.426,0-17.067,7.641-17.067,17.067S144.174,256,153.6,256h68.267v68.267c0,9.426,7.641,17.067,17.067,17.067 S256,333.692,256,324.267V256h68.267c9.426,0,17.067-7.641,17.067-17.067S333.692,221.867,324.267,221.867z"/></g></g>
        </symbol>

        <symbol id="icon_add_pencil" enable-background="new 0 0 24 24" viewBox="0 0 24 24" xmlns="http://www.w3.org/2000/svg">
            <path d="m17.5 24c-3.584 0-6.5-2.916-6.5-6.5s2.916-6.5 6.5-6.5 6.5 2.916 6.5 6.5-2.916 6.5-6.5 6.5zm0-11.5c-2.757 0-5 2.243-5 5s2.243 5 5 5 5-2.243 5-5-2.243-5-5-5z"/><path d="m17.5 21c-.414 0-.75-.336-.75-.75v-5.5c0-.414.336-.75.75-.75s.75.336.75.75v5.5c0 .414-.336.75-.75.75z"/><path d="m20.25 18.25h-5.5c-.414 0-.75-.336-.75-.75s.336-.75.75-.75h5.5c.414 0 .75.336.75.75s-.336.75-.75.75z"/><path d="m19.871 9.011c-.192 0-.384-.073-.53-.22l-4.135-4.134c-.293-.293-.293-.768 0-1.061s.768-.293 1.061 0l4.135 4.134c.293.293.293.768 0 1.061-.147.147-.339.22-.531.22z"/><path d="m.75 24c-.195 0-.387-.076-.53-.22-.206-.206-.274-.513-.175-.786l2.38-6.56c.038-.104.097-.197.175-.274l15.08-15.07c1.392-1.404 3.836-1.406 5.233.002.7.701 1.087 1.628 1.087 2.608 0 .999-.389 1.931-1.094 2.625l-3.135 3.135c-.293.293-.768.293-1.061 0s-.293-.768 0-1.061l3.14-3.14c.421-.414.65-.967.65-1.56 0-.58-.231-1.13-.65-1.55-.833-.84-2.279-.838-3.107-.002l-14.965 14.956-1.776 4.896 4.896-1.776 1.502-1.503c.293-.293.768-.293 1.061 0s.293.768 0 1.061l-1.621 1.619c-.078.078-.171.138-.274.175l-6.56 2.38c-.084.03-.17.045-.256.045z"/><path d="m7.308 21.62c-.192 0-.384-.073-.53-.22l-4.178-4.177c-.293-.293-.293-.768 0-1.061s.768-.293 1.061 0l4.178 4.178c.293.293.293.768 0 1.061-.147.146-.339.219-.531.219z"/>
        </symbol>

        <symbol id="icon_add_pencil" enable-background="new 0 0 24 24" viewBox="0 0 24 24" xmlns="http://www.w3.org/2000/svg">
            <path d="m17.5 24c-3.584 0-6.5-2.916-6.5-6.5s2.916-6.5 6.5-6.5 6.5 2.916 6.5 6.5-2.916 6.5-6.5 6.5zm0-11.5c-2.757 0-5 2.243-5 5s2.243 5 5 5 5-2.243 5-5-2.243-5-5-5z"/><path d="m17.5 21c-.414 0-.75-.336-.75-.75v-5.5c0-.414.336-.75.75-.75s.75.336.75.75v5.5c0 .414-.336.75-.75.75z"/><path d="m20.25 18.25h-5.5c-.414 0-.75-.336-.75-.75s.336-.75.75-.75h5.5c.414 0 .75.336.75.75s-.336.75-.75.75z"/><path d="m19.871 9.011c-.192 0-.384-.073-.53-.22l-4.135-4.134c-.293-.293-.293-.768 0-1.061s.768-.293 1.061 0l4.135 4.134c.293.293.293.768 0 1.061-.147.147-.339.22-.531.22z"/><path d="m.75 24c-.195 0-.387-.076-.53-.22-.206-.206-.274-.513-.175-.786l2.38-6.56c.038-.104.097-.197.175-.274l15.08-15.07c1.392-1.404 3.836-1.406 5.233.002.7.701 1.087 1.628 1.087 2.608 0 .999-.389 1.931-1.094 2.625l-3.135 3.135c-.293.293-.768.293-1.061 0s-.293-.768 0-1.061l3.14-3.14c.421-.414.65-.967.65-1.56 0-.58-.231-1.13-.65-1.55-.833-.84-2.279-.838-3.107-.002l-14.965 14.956-1.776 4.896 4.896-1.776 1.502-1.503c.293-.293.768-.293 1.061 0s.293.768 0 1.061l-1.621 1.619c-.078.078-.171.138-.274.175l-6.56 2.38c-.084.03-.17.045-.256.045z"/><path d="m7.308 21.62c-.192 0-.384-.073-.53-.22l-4.178-4.177c-.293-.293-.293-.768 0-1.061s.768-.293 1.061 0l4.178 4.178c.293.293.293.768 0 1.061-.147.146-.339.219-.531.219z"/>
        </symbol>

        <symbol id="icon-portfel" width="24" height="24" viewBox="0 0 24 24" fill="none" xmlns="http://www.w3.org/2000/svg">
            <path d="M20.25 6.75H3.75C3.33579 6.75 3 7.08579 3 7.5V19.5C3 19.9142 3.33579 20.25 3.75 20.25H20.25C20.6642 20.25 21 19.9142 21 19.5V7.5C21 7.08579 20.6642 6.75 20.25 6.75Z" stroke-width="1.5" stroke-linecap="round" stroke-linejoin="round"/>
            <path d="M15.75 6.75V5.25C15.75 4.85218 15.592 4.47064 15.3107 4.18934C15.0294 3.90804 14.6478 3.75 14.25 3.75H9.75C9.35218 3.75 8.97064 3.90804 8.68934 4.18934C8.40804 4.47064 8.25 4.85218 8.25 5.25V6.75" stroke-width="1.5" stroke-linecap="round" stroke-linejoin="round"/>
            <path d="M3 15H21" stroke-width="1.5" stroke-linecap="round" stroke-linejoin="round"/>
        </symbol>

        <symbol id="icon-rocket" width="24" height="24" viewBox="0 0 24 24" fill="none" xmlns="http://www.w3.org/2000/svg">
            <path d="M13.5 21H10.5" stroke-width="1.5" stroke-linecap="round" stroke-linejoin="round"/>
            <path d="M11.5269 1.85217C9.74631 3.27849 3.79095 8.97802 8.99836 17.9994H14.9984C20.0975 8.98441 14.2292 3.28656 12.4674 1.8552C12.3346 1.74724 12.1688 1.68806 11.9977 1.6875C11.8265 1.68695 11.6603 1.74507 11.5269 1.85217V1.85217Z"  stroke-width="1.5" stroke-linecap="round" stroke-linejoin="round"/>
            <path d="M6.92541 10.4395L3.98633 13.9663C3.91292 14.0544 3.86069 14.1582 3.83365 14.2696C3.80661 14.3811 3.80548 14.4972 3.83036 14.6092L4.98938 19.8248C5.01701 19.9491 5.07585 20.0644 5.16034 20.1597C5.24484 20.255 5.35221 20.3272 5.47233 20.3695C5.59246 20.4118 5.72138 20.4228 5.84695 20.4015C5.97252 20.3802 6.09059 20.3273 6.19004 20.2477L9.00042 17.9994"  stroke-width="1.5" stroke-linecap="round" stroke-linejoin="round"/>
            <path d="M17.0186 10.373L20.0141 13.9677C20.0875 14.0558 20.1397 14.1595 20.1668 14.271C20.1938 14.3824 20.1949 14.4986 20.1701 14.6105L19.011 19.8261C18.9834 19.9504 18.9246 20.0657 18.8401 20.161C18.7556 20.2563 18.6482 20.3285 18.5281 20.3708C18.408 20.4131 18.279 20.4241 18.1535 20.4028C18.0279 20.3815 17.9098 20.3286 17.8104 20.2491L15 18.0008"  stroke-width="1.5" stroke-linecap="round" stroke-linejoin="round"/>
            <path d="M12 10.125C12.6213 10.125 13.125 9.62132 13.125 9C13.125 8.37868 12.6213 7.875 12 7.875C11.3787 7.875 10.875 8.37868 10.875 9C10.875 9.62132 11.3787 10.125 12 10.125Z" fill="#373943"/>
        </symbol>

        <symbol id="icon-sticker" width="24" height="24" viewBox="0 0 24 24" fill="none" xmlns="http://www.w3.org/2000/svg">
            <path d="M12.75 20.25H8.25C7.05653 20.25 5.91193 19.7759 5.06802 18.932C4.22411 18.0881 3.75 16.9435 3.75 15.75V8.25C3.75 7.05653 4.22411 5.91193 5.06802 5.06802C5.91193 4.22411 7.05653 3.75 8.25 3.75H15.75C16.9435 3.75 18.0881 4.22411 18.932 5.06802C19.7759 5.91193 20.25 7.05653 20.25 8.25V12.75C19.5 15 15 19.5 12.75 20.25Z"  stroke-width="1.5" stroke-linecap="round" stroke-linejoin="round"/>
            <path d="M12.75 20.25V17.25C12.75 16.0565 13.2241 14.9119 14.068 14.068C14.9119 13.2241 16.0565 12.75 17.25 12.75H20.25"  stroke-width="1.5" stroke-linecap="round" stroke-linejoin="round"/>
        </symbol>

        <symbol id="icon-info" width="24" height="24" viewBox="0 0 24 24" fill="none" xmlns="http://www.w3.org/2000/svg">
            <path d="M12 21C16.9706 21 21 16.9706 21 12C21 7.02944 16.9706 3 12 3C7.02944 3 3 7.02944 3 12C3 16.9706 7.02944 21 12 21Z"  stroke-width="1.5" stroke-linecap="round" stroke-linejoin="round"/>
            <path d="M11.25 11.25H12V16.5H12.75"  stroke-width="1.5" stroke-linecap="round" stroke-linejoin="round"/>
            <path d="M12 9C12.6213 9 13.125 8.49632 13.125 7.875C13.125 7.25368 12.6213 6.75 12 6.75C11.3787 6.75 10.875 7.25368 10.875 7.875C10.875 8.49632 11.3787 9 12 9Z" fill="#373943"/>
        </symbol>

        <symbol id="icon-headset" width="24" height="24" viewBox="0 0 24 24" fill="none" xmlns="http://www.w3.org/2000/svg">
            <path d="M21.1365 12H18.1365C17.7387 12 17.3571 12.158 17.0758 12.4393C16.7945 12.7207 16.6365 13.1022 16.6365 13.5V17.25C16.6365 17.6478 16.7945 18.0294 17.0758 18.3107C17.3571 18.592 17.7387 18.75 18.1365 18.75H19.6365C20.0343 18.75 20.4158 18.592 20.6971 18.3107C20.9784 18.0294 21.1365 17.6478 21.1365 17.25V12ZM21.1365 12C21.1365 10.8124 20.9014 9.63647 20.4449 8.5401C19.9883 7.44373 19.3192 6.44856 18.4763 5.61196C17.6333 4.77536 16.6331 4.11388 15.5333 3.66564C14.4335 3.21739 13.2558 2.99125 12.0682 3.00026C10.8806 2.99125 9.70299 3.21739 8.60319 3.66564C7.50339 4.11388 6.50318 4.77536 5.66021 5.61196C4.81725 6.44856 4.1482 7.44373 3.69163 8.5401C3.23506 9.63647 3 10.8124 3 12V17.25C3 17.6478 3.15804 18.0294 3.43934 18.3107C3.72064 18.592 4.10218 18.75 4.5 18.75H6C6.39782 18.75 6.77936 18.592 7.06066 18.3107C7.34196 18.0294 7.5 17.6478 7.5 17.25V13.5C7.5 13.1022 7.34196 12.7207 7.06066 12.4393C6.77936 12.158 6.39782 12 6 12H3"  stroke-width="1.5" stroke-linecap="round" stroke-linejoin="round"/>
            <path d="M21.1365 17.25V19.5C21.1365 20.2956 20.8204 21.0587 20.2578 21.6213C19.6952 22.1839 18.9321 22.5 18.1365 22.5H12.75"  stroke-width="1.5" stroke-linecap="round" stroke-linejoin="round"/>
        </symbol>

        <symbol id="icon-gearSix" width="24" height="24" viewBox="0 0 24 24" fill="none" xmlns="http://www.w3.org/2000/svg">
            <path d="M12 16.5C14.4853 16.5 16.5 14.4853 16.5 12C16.5 9.51472 14.4853 7.5 12 7.5C9.51472 7.5 7.5 9.51472 7.5 12C7.5 14.4853 9.51472 16.5 12 16.5Z"  stroke-width="1.5" stroke-linecap="round" stroke-linejoin="round"/>
            <path d="M4.90184 8.58439C5.07299 8.22944 5.27057 7.88785 5.49291 7.56251L5.45195 5.12951C5.45009 5.01782 5.47312 4.90712 5.51937 4.80544C5.56561 4.70375 5.63392 4.61364 5.71933 4.54164C6.5975 3.80078 7.59984 3.22114 8.67998 2.82953C8.78477 2.79179 8.89665 2.77786 9.0075 2.78875C9.11834 2.79964 9.22537 2.83508 9.32081 2.8925L11.4107 4.1465L11.4086 4.1452C11.8016 4.11594 12.1962 4.11626 12.5891 4.14613L14.6757 2.89417C14.7715 2.83672 14.8788 2.80131 14.99 2.79052C15.1012 2.77973 15.2134 2.79383 15.3185 2.83179C16.3992 3.22188 17.4023 3.80011 18.2815 4.53973C18.3666 4.61161 18.4346 4.70154 18.4806 4.80298C18.5266 4.90442 18.5494 5.01483 18.5474 5.12619L18.5064 7.56312L18.5064 7.56061C18.7282 7.8863 18.9253 8.2282 19.0959 8.58342L21.2234 9.76445C21.321 9.81868 21.4054 9.89398 21.4703 9.98487C21.5353 10.0758 21.5791 10.18 21.5988 10.2899C21.8011 11.4198 21.8021 12.5765 21.6018 13.7067C21.5822 13.817 21.5384 13.9214 21.4734 14.0126C21.4084 14.1037 21.3239 14.1792 21.2261 14.2336L19.0953 15.4164L19.0975 15.4152C18.9263 15.7702 18.7288 16.1118 18.5064 16.4371L18.48 16.5536L18.5474 18.8701C18.5492 18.9818 18.5262 19.0925 18.48 19.1942C18.4337 19.2958 18.3654 19.386 18.28 19.458C17.4018 20.1988 16.3995 20.7785 15.3194 21.1701C15.2146 21.2078 15.1027 21.2217 14.9918 21.2109C14.881 21.2 14.774 21.1645 14.6785 21.1071L12.5886 19.8531L12.5907 19.8544C12.1978 19.8837 11.8032 19.8833 11.4102 19.8535L9.32369 21.1054C9.22789 21.1629 9.1205 21.1983 9.00932 21.2091C8.89813 21.2199 8.78594 21.2058 8.68089 21.1678C7.60019 20.7777 6.59704 20.1995 5.71782 19.4599C5.63275 19.388 5.56475 19.2981 5.51876 19.1966C5.47277 19.0952 5.44995 18.9848 5.45195 18.8734L5.49297 16.4365L5.49293 16.439C5.2711 16.1133 5.07407 15.7714 4.90348 15.4162L2.77597 14.2351C2.67831 14.1809 2.59396 14.1056 2.52902 14.0147C2.46408 13.9238 2.4202 13.8196 2.40055 13.7097C2.19822 12.5798 2.19721 11.4231 2.39756 10.2929C2.4171 10.1826 2.46096 10.0782 2.52595 9.98705C2.59093 9.89592 2.67541 9.82041 2.77324 9.76603L4.90404 8.58317L4.90184 8.58439Z"  stroke-width="1.5" stroke-linecap="round" stroke-linejoin="round"/>
        </symbol>


        <symbol id="portfolio_figure_bottom_right" width="137" height="69" viewBox="0 0 137 69" fill="none" xmlns="http://www.w3.org/2000/svg">
            <path d="M68.5 -2.99423e-06C106.332 -1.34056e-06 137 30.6685 137 68.5L137 138L-6.03217e-06 138L-2.99423e-06 68.5C-1.34056e-06 30.6685 30.6685 -4.6479e-06 68.5 -2.99423e-06Z" fill="#199F27"/>
        </symbol>

        <symbol id="portfolio_figure_bottom_left" width="64" height="64" viewBox="0 0 64 64" fill="none" xmlns="http://www.w3.org/2000/svg">
            <circle cx="32" cy="32" r="32" fill="#3E54D8"/>
        </symbol>

        <symbol id="portfolio_figure_top_right" width="140" height="139" viewBox="0 0 140 139" fill="none" xmlns="http://www.w3.org/2000/svg">
            <path d="M0 69.5C0 31.1162 31.1162 0 69.5 0L140 0V139H69.5C31.1162 139 0 107.884 0 69.5Z" fill="#F3B63F"/>
        </symbol>

        <symbol id="portfolio_figure_top_left" width="192" height="192" viewBox="0 0 192 192" fill="none" xmlns="http://www.w3.org/2000/svg">
            <path d="M192 0C192 106.039 106.039 192 0 192L0 0L192 0Z" fill="#ED6373"/>
        </symbol>

        <symbol id="icon-signOut" width="24" height="24" viewBox="0 0 24 24" fill="none" xmlns="http://www.w3.org/2000/svg">
            <path d="M16.3135 8.0625L20.2499 12L16.3135 15.9375" stroke-width="1.5" stroke-linecap="round" stroke-linejoin="round"/>
            <path d="M9.75 12H20.2472" stroke-width="1.5" stroke-linecap="round" stroke-linejoin="round"/>
            <path d="M9.75 20.25H4.5C4.30109 20.25 4.11032 20.171 3.96967 20.0303C3.82902 19.8897 3.75 19.6989 3.75 19.5V4.5C3.75 4.30109 3.82902 4.11032 3.96967 3.96967C4.11032 3.82902 4.30109 3.75 4.5 3.75H9.75" stroke-width="1.5" stroke-linecap="round" stroke-linejoin="round"/>
        </symbol>

        <svg id="icon-house" width="32" height="32" viewBox="0 0 32 32" fill="none" xmlns="http://www.w3.org/2000/svg">
            <path d="M18.9993 26.0002V20C18.9993 19.7348 18.8939 19.4805 18.7064 19.2929C18.5188 19.1054 18.2645 19 17.9993 19H13.9993C13.7341 19 13.4797 19.1054 13.2922 19.2929C13.1046 19.4805 12.9993 19.7348 12.9993 20V26.0002C12.9993 26.2654 12.8939 26.5197 12.7064 26.7072C12.5189 26.8948 12.2646 27.0001 11.9994 27.0002L6.00012 27.001C5.86879 27.001 5.73874 26.9751 5.6174 26.9249C5.49606 26.8746 5.38581 26.801 5.29294 26.7081C5.20007 26.6153 5.12639 26.505 5.07613 26.3837C5.02587 26.2623 5 26.1323 5 26.001V14.4434C5 14.3041 5.02911 14.1663 5.08547 14.0389C5.14183 13.9115 5.22418 13.7973 5.32726 13.7035L15.3266 4.61168C15.5106 4.44431 15.7505 4.35157 15.9993 4.35156C16.2481 4.35155 16.4879 4.44428 16.672 4.61164L26.6727 13.7035C26.7758 13.7972 26.8582 13.9115 26.9145 14.0389C26.9709 14.1663 27 14.3041 27 14.4434V26.001C27 26.1323 26.9741 26.2623 26.9239 26.3837C26.8736 26.505 26.7999 26.6153 26.7071 26.7081C26.6142 26.801 26.5039 26.8746 26.3826 26.9249C26.2613 26.9751 26.1312 27.001 25.9999 27.001L19.9991 27.0002C19.7339 27.0001 19.4796 26.8948 19.2921 26.7072C19.1046 26.5197 18.9993 26.2654 18.9993 26.0002V26.0002Z" stroke="white" stroke-width="2" stroke-linecap="round" stroke-linejoin="round"/>
        </svg>


    </defs>
</svg>