<svg>
    <defs>

        <symbol id="arrow" width="11" height="17" viewBox="0 0 11 17" xmlns="http://www.w3.org/2000/svg">
            <path d="M9.99666 9.34159L2.68691 16.6511C2.22192 17.1163 1.46803 17.1163 1.00326 16.6511C0.538463 16.1863 0.538463 15.4324 1.00326 14.9677L7.47126 8.49988L1.00345 2.03231C0.538651 1.56732 0.538651 0.813539 1.00345 0.34874C1.46825 -0.116247 2.22211 -0.116247 2.6871 0.34874L9.99685 7.65836C10.2292 7.89087 10.3453 8.19528 10.3453 8.49984C10.3453 8.80455 10.229 9.10919 9.99666 9.34159Z"/>
        </symbol>

        <symbol id="arrow_big_grey" width="182" height="455" viewBox="0 0 182 455" fill="none" xmlns="http://www.w3.org/2000/svg">
            <path d="M245 439L32 226L242 16" stroke="#F2F2F2" stroke-width="45"/>
        </symbol>

        <symbol id="arrow_big_yellow" width="257" height="721" viewBox="0 0 257 721" fill="none" xmlns="http://www.w3.org/2000/svg">
            <path d="M363 720L1 357.95L357.901 1" stroke="#F9B233"/>
        </symbol>

        <symbol id="icon_logout" viewBox="0 0 512.016 512" xmlns="http://www.w3.org/2000/svg">
            <path d="m496 240.007812h-202.667969c-8.832031 0-16-7.167968-16-16 0-8.832031 7.167969-16 16-16h202.667969c8.832031 0 16 7.167969 16 16 0 8.832032-7.167969 16-16 16zm0 0"/><path d="m416 320.007812c-4.097656 0-8.191406-1.558593-11.308594-4.691406-6.25-6.253906-6.25-16.386718 0-22.636718l68.695313-68.691407-68.695313-68.695312c-6.25-6.25-6.25-16.382813 0-22.632813 6.253906-6.253906 16.386719-6.253906 22.636719 0l80 80c6.25 6.25 6.25 16.382813 0 22.632813l-80 80c-3.136719 3.15625-7.230469 4.714843-11.328125 4.714843zm0 0"/><path d="m170.667969 512.007812c-4.566407 0-8.898438-.640624-13.226563-1.984374l-128.386718-42.773438c-17.46875-6.101562-29.054688-22.378906-29.054688-40.574219v-384c0-23.53125 19.136719-42.6679685 42.667969-42.6679685 4.5625 0 8.894531.6406255 13.226562 1.9843755l128.382813 42.773437c17.472656 6.101563 29.054687 22.378906 29.054687 40.574219v384c0 23.53125-19.132812 42.667968-42.664062 42.667968zm-128-480c-5.867188 0-10.667969 4.800782-10.667969 10.667969v384c0 4.542969 3.050781 8.765625 7.402344 10.28125l127.785156 42.582031c.917969.296876 2.113281.46875 3.480469.46875 5.867187 0 10.664062-4.800781 10.664062-10.667968v-384c0-4.542969-3.050781-8.765625-7.402343-10.28125l-127.785157-42.582032c-.917969-.296874-2.113281-.46875-3.476562-.46875zm0 0"/><path d="m325.332031 170.675781c-8.832031 0-16-7.167969-16-16v-96c0-14.699219-11.964843-26.667969-26.664062-26.667969h-240c-8.832031 0-16-7.167968-16-16 0-8.832031 7.167969-15.9999995 16-15.9999995h240c32.363281 0 58.664062 26.3046875 58.664062 58.6679685v96c0 8.832031-7.167969 16-16 16zm0 0"/><path d="m282.667969 448.007812h-85.335938c-8.832031 0-16-7.167968-16-16 0-8.832031 7.167969-16 16-16h85.335938c14.699219 0 26.664062-11.96875 26.664062-26.667968v-96c0-8.832032 7.167969-16 16-16s16 7.167968 16 16v96c0 32.363281-26.300781 58.667968-58.664062 58.667968zm0 0"/>
        </symbol>

        <symbol id="icon_user" viewBox="-42 0 512 512.001" xmlns="http://www.w3.org/2000/svg">
            <path d="m210.351562 246.632812c33.882813 0 63.21875-12.152343 87.195313-36.128906 23.96875-23.972656 36.125-53.304687 36.125-87.191406 0-33.875-12.152344-63.210938-36.128906-87.191406-23.976563-23.96875-53.3125-36.121094-87.191407-36.121094-33.886718 0-63.21875 12.152344-87.191406 36.125s-36.128906 53.308594-36.128906 87.1875c0 33.886719 12.15625 63.222656 36.128906 87.195312 23.980469 23.96875 53.316406 36.125 87.191406 36.125zm-65.972656-189.292968c18.394532-18.394532 39.972656-27.335938 65.972656-27.335938 25.996094 0 47.578126 8.941406 65.976563 27.335938 18.394531 18.398437 27.339844 39.980468 27.339844 65.972656 0 26-8.945313 47.578125-27.339844 65.976562-18.398437 18.398438-39.980469 27.339844-65.976563 27.339844-25.992187 0-47.570312-8.945312-65.972656-27.339844-18.398437-18.394531-27.34375-39.976562-27.34375-65.976562 0-25.992188 8.945313-47.574219 27.34375-65.972656zm0 0"/><path d="m426.128906 393.703125c-.691406-9.976563-2.089844-20.859375-4.148437-32.351563-2.078125-11.578124-4.753907-22.523437-7.957031-32.527343-3.3125-10.339844-7.808594-20.550781-13.375-30.335938-5.769532-10.15625-12.550782-19-20.160157-26.277343-7.957031-7.613282-17.699219-13.734376-28.964843-18.199219-11.226563-4.441407-23.667969-6.691407-36.976563-6.691407-5.226563 0-10.28125 2.144532-20.042969 8.5-6.007812 3.917969-13.035156 8.449219-20.878906 13.460938-6.707031 4.273438-15.792969 8.277344-27.015625 11.902344-10.949219 3.542968-22.066406 5.339844-33.042969 5.339844-10.96875 0-22.085937-1.796876-33.042968-5.339844-11.210938-3.621094-20.300782-7.625-26.996094-11.898438-7.769532-4.964844-14.800782-9.496094-20.898438-13.46875-9.753906-6.355468-14.808594-8.5-20.035156-8.5-13.3125 0-25.75 2.253906-36.972656 6.699219-11.257813 4.457031-21.003906 10.578125-28.96875 18.199219-7.609375 7.28125-14.390625 16.121094-20.15625 26.273437-5.558594 9.785157-10.058594 19.992188-13.371094 30.339844-3.199219 10.003906-5.875 20.945313-7.953125 32.523437-2.0625 11.476563-3.457031 22.363282-4.148437 32.363282-.679688 9.777344-1.023438 19.953125-1.023438 30.234375 0 26.726562 8.496094 48.363281 25.25 64.320312 16.546875 15.746094 38.4375 23.730469 65.066406 23.730469h246.53125c26.621094 0 48.511719-7.984375 65.0625-23.730469 16.757813-15.945312 25.253906-37.589843 25.253906-64.324219-.003906-10.316406-.351562-20.492187-1.035156-30.242187zm-44.90625 72.828125c-10.933594 10.40625-25.449218 15.464844-44.378906 15.464844h-246.527344c-18.933594 0-33.449218-5.058594-44.378906-15.460938-10.722656-10.207031-15.933594-24.140625-15.933594-42.585937 0-9.59375.316406-19.066407.949219-28.160157.617187-8.921874 1.878906-18.722656 3.75-29.136718 1.847656-10.285156 4.199219-19.9375 6.996094-28.675782 2.683593-8.378906 6.34375-16.675781 10.882812-24.667968 4.332031-7.617188 9.316407-14.152344 14.816407-19.417969 5.144531-4.925781 11.628906-8.957031 19.269531-11.980469 7.066406-2.796875 15.007812-4.328125 23.628906-4.558594 1.050781.558594 2.921875 1.625 5.953125 3.601563 6.167969 4.019531 13.277344 8.605469 21.136719 13.625 8.859375 5.648437 20.273437 10.75 33.910156 15.152344 13.941406 4.507812 28.160156 6.796875 42.273437 6.796875 14.113282 0 28.335938-2.289063 42.269532-6.792969 13.648437-4.410156 25.058594-9.507813 33.929687-15.164063 8.042969-5.140624 14.953125-9.59375 21.121094-13.617187 3.03125-1.972656 4.902344-3.042969 5.953125-3.601563 8.625.230469 16.566406 1.761719 23.636719 4.558594 7.636719 3.023438 14.121093 7.058594 19.265625 11.980469 5.5 5.261719 10.484375 11.796875 14.816406 19.421875 4.542969 7.988281 8.207031 16.289062 10.886719 24.660156 2.800781 8.75 5.15625 18.398438 7 28.675782 1.867187 10.433593 3.132812 20.238281 3.75 29.144531v.007812c.636719 9.058594.957031 18.527344.960937 28.148438-.003906 18.449219-5.214844 32.378906-15.9375 42.582031zm0 0"/>
        </symbol>

        <symbol id="icon_window_max" enable-background="new 0 0 24 24" viewBox="0 0 24 24"  xmlns="http://www.w3.org/2000/svg">
            <g>
                <path d="m15 9.75c-.192 0-.384-.073-.53-.22-.293-.293-.293-.768 0-1.061l8.25-8.25c.293-.293.768-.293 1.061 0s.293.768 0 1.061l-8.25 8.25c-.147.147-.339.22-.531.22z"/></g><g><path d="m20.25 10h-5.5c-.414 0-.75-.336-.75-.75v-5.5c0-.414.336-.75.75-.75s.75.336.75.75v4.75h4.75c.414 0 .75.336.75.75s-.336.75-.75.75z"/></g><g><path d="m17.25 24h-14.5c-1.517 0-2.75-1.233-2.75-2.75v-11.5c0-.981.529-1.89 1.38-2.373.361-.205.818-.077 1.022.283.205.36.078.818-.282 1.022-.388.22-.62.62-.62 1.068v11.5c0 .689.561 1.25 1.25 1.25h14.5c.689 0 1.25-.561 1.25-1.25v-2c0-.414.336-.75.75-.75s.75.336.75.75v2c0 1.517-1.233 2.75-2.75 2.75z"/></g><g><path d="m1.75 12h-1c-.414 0-.75-.336-.75-.75s.336-.75.75-.75h1c.414 0 .75.336.75.75s-.336.75-.75.75z"/></g><g><path d="m21.25 17h-14.5c-1.517 0-2.75-1.233-2.75-2.75v-11.5c0-1.517 1.233-2.75 2.75-2.75h11.5c.414 0 .75.336.75.75s-.336.75-.75.75h-11.5c-.689 0-1.25.561-1.25 1.25v11.5c0 .689.561 1.25 1.25 1.25h14.5c.689 0 1.25-.561 1.25-1.25v-8.5c0-.414.336-.75.75-.75s.75.336.75.75v8.5c0 1.517-1.233 2.75-2.75 2.75z"/></g><g>
                <path d="m11.25 5h-6.5c-.414 0-.75-.336-.75-.75s.336-.75.75-.75h6.5c.414 0 .75.336.75.75s-.336.75-.75.75z"/>
            </g>
        </symbol>

        <symbol id="icon_calendar" xmlns="http://www.w3.org/2000/svg" viewBox="0 0 512 512" style="enable-background:new 0 0 512 512;" xml:space="preserve"><g><g><g><circle cx="386" cy="210" r="20"/><path d="M432,40h-26V20c0-11.046-8.954-20-20-20c-11.046,0-20,8.954-20,20v20h-91V20c0-11.046-8.954-20-20-20 c-11.046,0-20,8.954-20,20v20h-90V20c0-11.046-8.954-20-20-20s-20,8.954-20,20v20H80C35.888,40,0,75.888,0,120v312 c0,44.112,35.888,80,80,80h153c11.046,0,20-8.954,20-20c0-11.046-8.954-20-20-20H80c-22.056,0-40-17.944-40-40V120 c0-22.056,17.944-40,40-40h25v20c0,11.046,8.954,20,20,20s20-8.954,20-20V80h90v20c0,11.046,8.954,20,20,20s20-8.954,20-20V80h91 v20c0,11.046,8.954,20,20,20c11.046,0,20-8.954,20-20V80h26c22.056,0,40,17.944,40,40v114c0,11.046,8.954,20,20,20 c11.046,0,20-8.954,20-20V120C512,75.888,476.112,40,432,40z"/><path d="M391,270c-66.72,0-121,54.28-121,121s54.28,121,121,121s121-54.28,121-121S457.72,270,391,270z M391,472 c-44.663,0-81-36.336-81-81s36.337-81,81-81c44.663,0,81,36.336,81,81S435.663,472,391,472z"/>
            <path d="M420,371h-9v-21c0-11.046-8.954-20-20-20c-11.046,0-20,8.954-20,20v41c0,11.046,8.954,20,20,20h29 c11.046,0,20-8.954,20-20C440,379.954,431.046,371,420,371z"/>
                    <circle cx="299" cy="210" r="20"/><circle cx="212" cy="297" r="20"/><circle cx="125" cy="210" r="20"/><circle cx="125" cy="297" r="20"/><circle cx="125" cy="384" r="20"/><circle cx="212" cy="384" r="20"/><circle cx="212" cy="210" r="20"/>
                </g></g></g>
        </symbol>

        <symbol id="icon_add" xmlns="http://www.w3.org/2000/svg" viewBox="0 0 477.867 477.867" style="enable-background:new 0 0 477.867 477.867;" xml:space="preserve">
            <g><g><path d="M392.533,0h-307.2C38.228,0.056,0.056,38.228,0,85.333v307.2c0.056,47.105,38.228,85.277,85.333,85.333h307.2 c47.105-0.056,85.277-38.228,85.333-85.333v-307.2C477.81,38.228,439.638,0.056,392.533,0z M443.733,392.533 c0,28.277-22.923,51.2-51.2,51.2h-307.2c-28.277,0-51.2-22.923-51.2-51.2v-307.2c0-28.277,22.923-51.2,51.2-51.2h307.2 c28.277,0,51.2,22.923,51.2,51.2V392.533z"/></g></g><g><g><path d="M324.267,221.867H256V153.6c0-9.426-7.641-17.067-17.067-17.067s-17.067,7.641-17.067,17.067v68.267H153.6 c-9.426,0-17.067,7.641-17.067,17.067S144.174,256,153.6,256h68.267v68.267c0,9.426,7.641,17.067,17.067,17.067 S256,333.692,256,324.267V256h68.267c9.426,0,17.067-7.641,17.067-17.067S333.692,221.867,324.267,221.867z"/></g></g>
        </symbol>

        <symbol id="icon_add_pencil" enable-background="new 0 0 24 24" viewBox="0 0 24 24" xmlns="http://www.w3.org/2000/svg">
            <path d="m17.5 24c-3.584 0-6.5-2.916-6.5-6.5s2.916-6.5 6.5-6.5 6.5 2.916 6.5 6.5-2.916 6.5-6.5 6.5zm0-11.5c-2.757 0-5 2.243-5 5s2.243 5 5 5 5-2.243 5-5-2.243-5-5-5z"/><path d="m17.5 21c-.414 0-.75-.336-.75-.75v-5.5c0-.414.336-.75.75-.75s.75.336.75.75v5.5c0 .414-.336.75-.75.75z"/><path d="m20.25 18.25h-5.5c-.414 0-.75-.336-.75-.75s.336-.75.75-.75h5.5c.414 0 .75.336.75.75s-.336.75-.75.75z"/><path d="m19.871 9.011c-.192 0-.384-.073-.53-.22l-4.135-4.134c-.293-.293-.293-.768 0-1.061s.768-.293 1.061 0l4.135 4.134c.293.293.293.768 0 1.061-.147.147-.339.22-.531.22z"/><path d="m.75 24c-.195 0-.387-.076-.53-.22-.206-.206-.274-.513-.175-.786l2.38-6.56c.038-.104.097-.197.175-.274l15.08-15.07c1.392-1.404 3.836-1.406 5.233.002.7.701 1.087 1.628 1.087 2.608 0 .999-.389 1.931-1.094 2.625l-3.135 3.135c-.293.293-.768.293-1.061 0s-.293-.768 0-1.061l3.14-3.14c.421-.414.65-.967.65-1.56 0-.58-.231-1.13-.65-1.55-.833-.84-2.279-.838-3.107-.002l-14.965 14.956-1.776 4.896 4.896-1.776 1.502-1.503c.293-.293.768-.293 1.061 0s.293.768 0 1.061l-1.621 1.619c-.078.078-.171.138-.274.175l-6.56 2.38c-.084.03-.17.045-.256.045z"/><path d="m7.308 21.62c-.192 0-.384-.073-.53-.22l-4.178-4.177c-.293-.293-.293-.768 0-1.061s.768-.293 1.061 0l4.178 4.178c.293.293.293.768 0 1.061-.147.146-.339.219-.531.219z"/>
        </symbol>

        <symbol id="icon_add_pencil" enable-background="new 0 0 24 24" viewBox="0 0 24 24" xmlns="http://www.w3.org/2000/svg">
            <path d="m17.5 24c-3.584 0-6.5-2.916-6.5-6.5s2.916-6.5 6.5-6.5 6.5 2.916 6.5 6.5-2.916 6.5-6.5 6.5zm0-11.5c-2.757 0-5 2.243-5 5s2.243 5 5 5 5-2.243 5-5-2.243-5-5-5z"/><path d="m17.5 21c-.414 0-.75-.336-.75-.75v-5.5c0-.414.336-.75.75-.75s.75.336.75.75v5.5c0 .414-.336.75-.75.75z"/><path d="m20.25 18.25h-5.5c-.414 0-.75-.336-.75-.75s.336-.75.75-.75h5.5c.414 0 .75.336.75.75s-.336.75-.75.75z"/><path d="m19.871 9.011c-.192 0-.384-.073-.53-.22l-4.135-4.134c-.293-.293-.293-.768 0-1.061s.768-.293 1.061 0l4.135 4.134c.293.293.293.768 0 1.061-.147.147-.339.22-.531.22z"/><path d="m.75 24c-.195 0-.387-.076-.53-.22-.206-.206-.274-.513-.175-.786l2.38-6.56c.038-.104.097-.197.175-.274l15.08-15.07c1.392-1.404 3.836-1.406 5.233.002.7.701 1.087 1.628 1.087 2.608 0 .999-.389 1.931-1.094 2.625l-3.135 3.135c-.293.293-.768.293-1.061 0s-.293-.768 0-1.061l3.14-3.14c.421-.414.65-.967.65-1.56 0-.58-.231-1.13-.65-1.55-.833-.84-2.279-.838-3.107-.002l-14.965 14.956-1.776 4.896 4.896-1.776 1.502-1.503c.293-.293.768-.293 1.061 0s.293.768 0 1.061l-1.621 1.619c-.078.078-.171.138-.274.175l-6.56 2.38c-.084.03-.17.045-.256.045z"/><path d="m7.308 21.62c-.192 0-.384-.073-.53-.22l-4.178-4.177c-.293-.293-.293-.768 0-1.061s.768-.293 1.061 0l4.178 4.178c.293.293.293.768 0 1.061-.147.146-.339.219-.531.219z"/>
        </symbol>

        <symbol id="icon-portfel" width="24" height="24" viewBox="0 0 24 24" fill="none" xmlns="http://www.w3.org/2000/svg">
            <path d="M20.25 6.75H3.75C3.33579 6.75 3 7.08579 3 7.5V19.5C3 19.9142 3.33579 20.25 3.75 20.25H20.25C20.6642 20.25 21 19.9142 21 19.5V7.5C21 7.08579 20.6642 6.75 20.25 6.75Z" stroke-width="1.5" stroke-linecap="round" stroke-linejoin="round"/>
            <path d="M15.75 6.75V5.25C15.75 4.85218 15.592 4.47064 15.3107 4.18934C15.0294 3.90804 14.6478 3.75 14.25 3.75H9.75C9.35218 3.75 8.97064 3.90804 8.68934 4.18934C8.40804 4.47064 8.25 4.85218 8.25 5.25V6.75" stroke-width="1.5" stroke-linecap="round" stroke-linejoin="round"/>
            <path d="M3 15H21" stroke-width="1.5" stroke-linecap="round" stroke-linejoin="round"/>
        </symbol>

        <symbol id="icon-rocket" width="24" height="24" viewBox="0 0 24 24" fill="none" xmlns="http://www.w3.org/2000/svg">
            <path d="M13.5 21H10.5" stroke-width="1.5" stroke-linecap="round" stroke-linejoin="round"/>
            <path d="M11.5269 1.85217C9.74631 3.27849 3.79095 8.97802 8.99836 17.9994H14.9984C20.0975 8.98441 14.2292 3.28656 12.4674 1.8552C12.3346 1.74724 12.1688 1.68806 11.9977 1.6875C11.8265 1.68695 11.6603 1.74507 11.5269 1.85217V1.85217Z"  stroke-width="1.5" stroke-linecap="round" stroke-linejoin="round"/>
            <path d="M6.92541 10.4395L3.98633 13.9663C3.91292 14.0544 3.86069 14.1582 3.83365 14.2696C3.80661 14.3811 3.80548 14.4972 3.83036 14.6092L4.98938 19.8248C5.01701 19.9491 5.07585 20.0644 5.16034 20.1597C5.24484 20.255 5.35221 20.3272 5.47233 20.3695C5.59246 20.4118 5.72138 20.4228 5.84695 20.4015C5.97252 20.3802 6.09059 20.3273 6.19004 20.2477L9.00042 17.9994"  stroke-width="1.5" stroke-linecap="round" stroke-linejoin="round"/>
            <path d="M17.0186 10.373L20.0141 13.9677C20.0875 14.0558 20.1397 14.1595 20.1668 14.271C20.1938 14.3824 20.1949 14.4986 20.1701 14.6105L19.011 19.8261C18.9834 19.9504 18.9246 20.0657 18.8401 20.161C18.7556 20.2563 18.6482 20.3285 18.5281 20.3708C18.408 20.4131 18.279 20.4241 18.1535 20.4028C18.0279 20.3815 17.9098 20.3286 17.8104 20.2491L15 18.0008"  stroke-width="1.5" stroke-linecap="round" stroke-linejoin="round"/>
            <path d="M12 10.125C12.6213 10.125 13.125 9.62132 13.125 9C13.125 8.37868 12.6213 7.875 12 7.875C11.3787 7.875 10.875 8.37868 10.875 9C10.875 9.62132 11.3787 10.125 12 10.125Z" fill="#373943"/>
        </symbol>

        <symbol id="icon-sticker" width="24" height="24" viewBox="0 0 24 24" fill="none" xmlns="http://www.w3.org/2000/svg">
            <path d="M12.75 20.25H8.25C7.05653 20.25 5.91193 19.7759 5.06802 18.932C4.22411 18.0881 3.75 16.9435 3.75 15.75V8.25C3.75 7.05653 4.22411 5.91193 5.06802 5.06802C5.91193 4.22411 7.05653 3.75 8.25 3.75H15.75C16.9435 3.75 18.0881 4.22411 18.932 5.06802C19.7759 5.91193 20.25 7.05653 20.25 8.25V12.75C19.5 15 15 19.5 12.75 20.25Z"  stroke-width="1.5" stroke-linecap="round" stroke-linejoin="round"/>
            <path d="M12.75 20.25V17.25C12.75 16.0565 13.2241 14.9119 14.068 14.068C14.9119 13.2241 16.0565 12.75 17.25 12.75H20.25"  stroke-width="1.5" stroke-linecap="round" stroke-linejoin="round"/>
        </symbol>

        <symbol id="icon-info" width="24" height="24" viewBox="0 0 24 24" fill="none" xmlns="http://www.w3.org/2000/svg">
            <path d="M12 21C16.9706 21 21 16.9706 21 12C21 7.02944 16.9706 3 12 3C7.02944 3 3 7.02944 3 12C3 16.9706 7.02944 21 12 21Z"  stroke-width="1.5" stroke-linecap="round" stroke-linejoin="round"/>
            <path d="M11.25 11.25H12V16.5H12.75"  stroke-width="1.5" stroke-linecap="round" stroke-linejoin="round"/>
            <path d="M12 9C12.6213 9 13.125 8.49632 13.125 7.875C13.125 7.25368 12.6213 6.75 12 6.75C11.3787 6.75 10.875 7.25368 10.875 7.875C10.875 8.49632 11.3787 9 12 9Z" fill="#373943"/>
        </symbol>

        <symbol id="icon-headset" width="24" height="24" viewBox="0 0 24 24" fill="none" xmlns="http://www.w3.org/2000/svg">
            <path d="M21.1365 12H18.1365C17.7387 12 17.3571 12.158 17.0758 12.4393C16.7945 12.7207 16.6365 13.1022 16.6365 13.5V17.25C16.6365 17.6478 16.7945 18.0294 17.0758 18.3107C17.3571 18.592 17.7387 18.75 18.1365 18.75H19.6365C20.0343 18.75 20.4158 18.592 20.6971 18.3107C20.9784 18.0294 21.1365 17.6478 21.1365 17.25V12ZM21.1365 12C21.1365 10.8124 20.9014 9.63647 20.4449 8.5401C19.9883 7.44373 19.3192 6.44856 18.4763 5.61196C17.6333 4.77536 16.6331 4.11388 15.5333 3.66564C14.4335 3.21739 13.2558 2.99125 12.0682 3.00026C10.8806 2.99125 9.70299 3.21739 8.60319 3.66564C7.50339 4.11388 6.50318 4.77536 5.66021 5.61196C4.81725 6.44856 4.1482 7.44373 3.69163 8.5401C3.23506 9.63647 3 10.8124 3 12V17.25C3 17.6478 3.15804 18.0294 3.43934 18.3107C3.72064 18.592 4.10218 18.75 4.5 18.75H6C6.39782 18.75 6.77936 18.592 7.06066 18.3107C7.34196 18.0294 7.5 17.6478 7.5 17.25V13.5C7.5 13.1022 7.34196 12.7207 7.06066 12.4393C6.77936 12.158 6.39782 12 6 12H3"  stroke-width="1.5" stroke-linecap="round" stroke-linejoin="round"/>
            <path d="M21.1365 17.25V19.5C21.1365 20.2956 20.8204 21.0587 20.2578 21.6213C19.6952 22.1839 18.9321 22.5 18.1365 22.5H12.75"  stroke-width="1.5" stroke-linecap="round" stroke-linejoin="round"/>
        </symbol>

        <symbol id="icon-gearSix" width="24" height="24" viewBox="0 0 24 24" fill="none" xmlns="http://www.w3.org/2000/svg">
            <path d="M12 16.5C14.4853 16.5 16.5 14.4853 16.5 12C16.5 9.51472 14.4853 7.5 12 7.5C9.51472 7.5 7.5 9.51472 7.5 12C7.5 14.4853 9.51472 16.5 12 16.5Z"  stroke-width="1.5" stroke-linecap="round" stroke-linejoin="round"/>
            <path d="M4.90184 8.58439C5.07299 8.22944 5.27057 7.88785 5.49291 7.56251L5.45195 5.12951C5.45009 5.01782 5.47312 4.90712 5.51937 4.80544C5.56561 4.70375 5.63392 4.61364 5.71933 4.54164C6.5975 3.80078 7.59984 3.22114 8.67998 2.82953C8.78477 2.79179 8.89665 2.77786 9.0075 2.78875C9.11834 2.79964 9.22537 2.83508 9.32081 2.8925L11.4107 4.1465L11.4086 4.1452C11.8016 4.11594 12.1962 4.11626 12.5891 4.14613L14.6757 2.89417C14.7715 2.83672 14.8788 2.80131 14.99 2.79052C15.1012 2.77973 15.2134 2.79383 15.3185 2.83179C16.3992 3.22188 17.4023 3.80011 18.2815 4.53973C18.3666 4.61161 18.4346 4.70154 18.4806 4.80298C18.5266 4.90442 18.5494 5.01483 18.5474 5.12619L18.5064 7.56312L18.5064 7.56061C18.7282 7.8863 18.9253 8.2282 19.0959 8.58342L21.2234 9.76445C21.321 9.81868 21.4054 9.89398 21.4703 9.98487C21.5353 10.0758 21.5791 10.18 21.5988 10.2899C21.8011 11.4198 21.8021 12.5765 21.6018 13.7067C21.5822 13.817 21.5384 13.9214 21.4734 14.0126C21.4084 14.1037 21.3239 14.1792 21.2261 14.2336L19.0953 15.4164L19.0975 15.4152C18.9263 15.7702 18.7288 16.1118 18.5064 16.4371L18.48 16.5536L18.5474 18.8701C18.5492 18.9818 18.5262 19.0925 18.48 19.1942C18.4337 19.2958 18.3654 19.386 18.28 19.458C17.4018 20.1988 16.3995 20.7785 15.3194 21.1701C15.2146 21.2078 15.1027 21.2217 14.9918 21.2109C14.881 21.2 14.774 21.1645 14.6785 21.1071L12.5886 19.8531L12.5907 19.8544C12.1978 19.8837 11.8032 19.8833 11.4102 19.8535L9.32369 21.1054C9.22789 21.1629 9.1205 21.1983 9.00932 21.2091C8.89813 21.2199 8.78594 21.2058 8.68089 21.1678C7.60019 20.7777 6.59704 20.1995 5.71782 19.4599C5.63275 19.388 5.56475 19.2981 5.51876 19.1966C5.47277 19.0952 5.44995 18.9848 5.45195 18.8734L5.49297 16.4365L5.49293 16.439C5.2711 16.1133 5.07407 15.7714 4.90348 15.4162L2.77597 14.2351C2.67831 14.1809 2.59396 14.1056 2.52902 14.0147C2.46408 13.9238 2.4202 13.8196 2.40055 13.7097C2.19822 12.5798 2.19721 11.4231 2.39756 10.2929C2.4171 10.1826 2.46096 10.0782 2.52595 9.98705C2.59093 9.89592 2.67541 9.82041 2.77324 9.76603L4.90404 8.58317L4.90184 8.58439Z"  stroke-width="1.5" stroke-linecap="round" stroke-linejoin="round"/>
        </symbol>


        <symbol id="portfolio_figure_bottom_right" width="137" height="69" viewBox="0 0 137 69" fill="none" xmlns="http://www.w3.org/2000/svg">
            <path d="M68.5 -2.99423e-06C106.332 -1.34056e-06 137 30.6685 137 68.5L137 138L-6.03217e-06 138L-2.99423e-06 68.5C-1.34056e-06 30.6685 30.6685 -4.6479e-06 68.5 -2.99423e-06Z" fill="#199F27"/>
        </symbol>

        <symbol id="portfolio_figure_bottom_left" width="64" height="64" viewBox="0 0 64 64" fill="none" xmlns="http://www.w3.org/2000/svg">
            <circle cx="32" cy="32" r="32" fill="#3E54D8"/>
        </symbol>

        <symbol id="portfolio_figure_top_right" width="140" height="139" viewBox="0 0 140 139" fill="none" xmlns="http://www.w3.org/2000/svg">
            <path d="M0 69.5C0 31.1162 31.1162 0 69.5 0L140 0V139H69.5C31.1162 139 0 107.884 0 69.5Z" fill="#F3B63F"/>
        </symbol>

        <symbol id="portfolio_figure_top_left" width="192" height="192" viewBox="0 0 192 192" fill="none" xmlns="http://www.w3.org/2000/svg">
            <path d="M192 0C192 106.039 106.039 192 0 192L0 0L192 0Z" fill="#ED6373"/>
        </symbol>

        <symbol id="icon-signOut" width="24" height="24" viewBox="0 0 24 24" fill="none" xmlns="http://www.w3.org/2000/svg">
            <path d="M16.3135 8.0625L20.2499 12L16.3135 15.9375" stroke-width="1.5" stroke-linecap="round" stroke-linejoin="round"/>
            <path d="M9.75 12H20.2472" stroke-width="1.5" stroke-linecap="round" stroke-linejoin="round"/>
            <path d="M9.75 20.25H4.5C4.30109 20.25 4.11032 20.171 3.96967 20.0303C3.82902 19.8897 3.75 19.6989 3.75 19.5V4.5C3.75 4.30109 3.82902 4.11032 3.96967 3.96967C4.11032 3.82902 4.30109 3.75 4.5 3.75H9.75" stroke-width="1.5" stroke-linecap="round" stroke-linejoin="round"/>
        </symbol>

        <symbol id="icon-house" width="32" height="32" viewBox="0 0 32 32" fill="none" xmlns="http://www.w3.org/2000/svg">
            <path d="M18.9993 26.0002V20C18.9993 19.7348 18.8939 19.4805 18.7064 19.2929C18.5188 19.1054 18.2645 19 17.9993 19H13.9993C13.7341 19 13.4797 19.1054 13.2922 19.2929C13.1046 19.4805 12.9993 19.7348 12.9993 20V26.0002C12.9993 26.2654 12.8939 26.5197 12.7064 26.7072C12.5189 26.8948 12.2646 27.0001 11.9994 27.0002L6.00012 27.001C5.86879 27.001 5.73874 26.9751 5.6174 26.9249C5.49606 26.8746 5.38581 26.801 5.29294 26.7081C5.20007 26.6153 5.12639 26.505 5.07613 26.3837C5.02587 26.2623 5 26.1323 5 26.001V14.4434C5 14.3041 5.02911 14.1663 5.08547 14.0389C5.14183 13.9115 5.22418 13.7973 5.32726 13.7035L15.3266 4.61168C15.5106 4.44431 15.7505 4.35157 15.9993 4.35156C16.2481 4.35155 16.4879 4.44428 16.672 4.61164L26.6727 13.7035C26.7758 13.7972 26.8582 13.9115 26.9145 14.0389C26.9709 14.1663 27 14.3041 27 14.4434V26.001C27 26.1323 26.9741 26.2623 26.9239 26.3837C26.8736 26.505 26.7999 26.6153 26.7071 26.7081C26.6142 26.801 26.5039 26.8746 26.3826 26.9249C26.2613 26.9751 26.1312 27.001 25.9999 27.001L19.9991 27.0002C19.7339 27.0001 19.4796 26.8948 19.2921 26.7072C19.1046 26.5197 18.9993 26.2654 18.9993 26.0002V26.0002Z" stroke="white" stroke-width="2" stroke-linecap="round" stroke-linejoin="round"/>
        </symbol>

        <symbol id="icon-PlusCircle" width="32" height="32" viewBox="0 0 32 32" fill="none" xmlns="http://www.w3.org/2000/svg">
            <path d="M16 28C22.6274 28 28 22.6274 28 16C28 9.37258 22.6274 4 16 4C9.37258 4 4 9.37258 4 16C4 22.6274 9.37258 28 16 28Z" stroke-width="2" stroke-miterlimit="10"/>
            <path d="M11 16H21" stroke-width="2" stroke-linecap="round" stroke-linejoin="round"/>
            <path d="M16 11V21" stroke-width="2" stroke-linecap="round" stroke-linejoin="round"/>
        </symbol>

        <symbol id="icon-ShareNetwork" width="32" height="32" viewBox="0 0 32 32" fill="none" xmlns="http://www.w3.org/2000/svg">
            <path d="M8 20C10.2091 20 12 18.2091 12 16C12 13.7909 10.2091 12 8 12C5.79086 12 4 13.7909 4 16C4 18.2091 5.79086 20 8 20Z" stroke="#8C9BEA" stroke-width="2" stroke-linecap="round" stroke-linejoin="round"/>
            <path d="M22 29C24.2091 29 26 27.2091 26 25C26 22.7909 24.2091 21 22 21C19.7909 21 18 22.7909 18 25C18 27.2091 19.7909 29 22 29Z" stroke="#8C9BEA" stroke-width="2" stroke-linecap="round" stroke-linejoin="round"/>
            <path d="M22 11C24.2091 11 26 9.20914 26 7C26 4.79086 24.2091 3 22 3C19.7909 3 18 4.79086 18 7C18 9.20914 19.7909 11 22 11Z" stroke="#8C9BEA" stroke-width="2" stroke-linecap="round" stroke-linejoin="round"/>
            <path d="M18.6347 9.16211L11.3633 13.8366" stroke="#8C9BEA" stroke-width="2" stroke-linecap="round" stroke-linejoin="round"/>
            <path d="M11.3633 18.1621L18.6347 22.8366" stroke="#8C9BEA" stroke-width="2" stroke-linecap="round" stroke-linejoin="round"/>
        </symbol>

        <symbol id="icon-Printer" width="32" height="32" viewBox="0 0 32 32" fill="none" xmlns="http://www.w3.org/2000/svg">
            <path d="M8 10V5H24V10" stroke="#8C9BEA" stroke-width="2" stroke-linecap="round" stroke-linejoin="round"/>
            <path d="M24 19H8V27.5H24V19Z" stroke="#8C9BEA" stroke-width="2" stroke-linecap="round" stroke-linejoin="round"/>
            <path d="M8 22H3.5V12C3.5 10.8954 4.47005 10 5.66667 10H26.3333C27.53 10 28.5 10.8954 28.5 12V22H24" stroke="#8C9BEA" stroke-width="2" stroke-linecap="round" stroke-linejoin="round"/>
            <path d="M23.5 16C24.3284 16 25 15.3284 25 14.5C25 13.6716 24.3284 13 23.5 13C22.6716 13 22 13.6716 22 14.5C22 15.3284 22.6716 16 23.5 16Z" fill="#8C9BEA"/>
        </symbol>

        <symbol id="icon-facebook" width="32" height="32" viewBox="0 0 32 32" xmlns="http://www.w3.org/2000/svg">
            <g clip-path="url(#clip0)">
            <path d="M23.4462 18.001L24.3352 12.21H18.7782V8.45195C18.7782 6.86795 19.5542 5.32295 22.0432 5.32295H24.5692V0.392953C24.5692 0.392953 22.2772 0.00195312 20.0852 0.00195312C15.5092 0.00195312 12.5182 2.77595 12.5182 7.79695V12.211H7.43115V18.002H12.5182V32.002H18.7782V18.002L23.4462 18.001Z"/>
            </g>
            <defs>
            <clipPath id="clip0">
            <rect width="32" height="32" fill="white"/>
            </clipPath>
            </defs>
        </symbol>

        <symbol id="icon-telegram" width="40" height="40" viewBox="0 0 40 40" xmlns="http://www.w3.org/2000/svg">
            <path d="M37.399 7.70441L32.1177 32.6107C31.719 34.3682 30.6802 34.8057 29.204 33.9782L21.1565 28.0482L17.274 31.7832C16.844 32.2132 16.4852 32.5719 15.6565 32.5719L16.2352 24.3769L31.149 10.9007C31.7977 10.3232 31.0077 10.0019 30.1415 10.5807L11.704 22.1907L3.76649 19.7057C2.04024 19.1669 2.00899 17.9794 4.12649 17.1507L35.1727 5.18941C36.6102 4.65066 37.8677 5.50941 37.399 7.70566V7.70441Z"/>
        </symbol>

        <symbol id="icon-instagram" width="32" height="32" viewBox="0 0 32 32" xmlns="http://www.w3.org/2000/svg">
            <path d="M16 0C11.651 0 11.109 0.021 9.40695 0.093C7.69795 0.177 6.54195 0.442 5.52195 0.838C4.45442 1.24102 3.48762 1.87202 2.68895 2.687C1.8717 3.4838 1.24035 4.45113 0.839953 5.52C0.443953 6.54 0.178953 7.696 0.0949531 9.405C0.0179531 11.108 0.00195312 11.649 0.00195312 15.998C0.00195312 20.347 0.0229531 20.889 0.0949531 22.591C0.178953 24.295 0.443953 25.456 0.839953 26.476C1.24297 27.5435 1.87397 28.5103 2.68895 29.309C3.48575 30.1263 4.45309 30.7576 5.52195 31.158C6.54195 31.549 7.70295 31.819 9.40695 31.903C11.11 31.98 11.651 31.996 16 31.996C20.349 31.996 20.891 31.975 22.593 31.903C24.297 31.819 25.458 31.548 26.478 31.158C27.5455 30.755 28.5123 30.124 29.311 29.309C30.1293 28.5131 30.7608 27.5455 31.16 26.476C31.551 25.456 31.821 24.295 31.905 22.591C31.982 20.888 31.998 20.347 31.998 15.998C31.998 11.649 31.977 11.107 31.905 9.405C31.821 7.701 31.55 6.534 31.16 5.52C30.7569 4.45246 30.1259 3.48566 29.311 2.687C28.515 1.86869 27.5474 1.23718 26.478 0.838C25.458 0.442 24.297 0.177 22.593 0.093C20.89 0.016 20.349 0 16 0ZM16 2.88C20.271 2.88 20.781 2.901 22.469 2.973C24.026 3.046 24.874 3.306 25.437 3.526C26.133 3.78292 26.7629 4.19185 27.281 4.723C27.8112 5.23883 28.2186 5.86735 28.473 6.562C28.693 7.125 28.953 7.973 29.026 9.53C29.098 11.218 29.119 11.729 29.119 15.999C29.119 20.269 29.098 20.78 29.02 22.468C28.936 24.025 28.676 24.873 28.457 25.436C28.154 26.187 27.816 26.712 27.258 27.28C26.7382 27.8078 26.1086 28.2148 25.414 28.472C24.858 28.692 23.998 28.952 22.435 29.025C20.738 29.097 20.238 29.118 15.956 29.118C11.674 29.118 11.175 29.097 9.47595 29.019C7.91895 28.935 7.05995 28.675 6.49695 28.456C5.73695 28.153 5.21595 27.815 4.65795 27.257C4.09495 26.694 3.73695 26.158 3.46095 25.413C3.23695 24.857 2.98095 23.997 2.89795 22.434C2.84095 20.757 2.81395 20.237 2.81395 15.975C2.81395 11.715 2.84095 11.194 2.89795 9.496C2.98095 7.933 3.23695 7.075 3.46095 6.517C3.73695 5.756 4.09595 5.236 4.65795 4.673C5.21495 4.116 5.73695 3.756 6.49695 3.474C7.05995 3.255 7.89795 2.995 9.46095 2.917C11.158 2.856 11.658 2.834 15.934 2.834L16 2.88ZM16 7.787C14.9213 7.78661 13.8531 7.99877 12.8565 8.41137C11.8599 8.82398 10.9543 9.42893 10.1916 10.1917C9.42888 10.9544 8.82393 11.8599 8.41133 12.8566C7.99872 13.8532 7.78656 14.9213 7.78695 16C7.78656 17.0787 7.99872 18.1468 8.41133 19.1434C8.82393 20.1401 9.42888 21.0456 10.1916 21.8083C10.9543 22.5711 11.8599 23.176 12.8565 23.5886C13.8531 24.0012 14.9213 24.2134 16 24.213C17.0786 24.2134 18.1468 24.0012 19.1434 23.5886C20.14 23.176 21.0456 22.5711 21.8083 21.8083C22.571 21.0456 23.176 20.1401 23.5886 19.1434C24.0012 18.1468 24.2133 17.0787 24.213 16C24.2133 14.9213 24.0012 13.8532 23.5886 12.8566C23.176 11.8599 22.571 10.9544 21.8083 10.1917C21.0456 9.42893 20.14 8.82398 19.1434 8.41137C18.1468 7.99877 17.0786 7.78661 16 7.787ZM16 21.333C13.052 21.333 10.667 18.948 10.667 16C10.667 13.052 13.052 10.667 16 10.667C18.948 10.667 21.333 13.052 21.333 16C21.333 18.948 18.948 21.333 16 21.333ZM26.464 7.459C26.4634 7.96866 26.2606 8.45727 25.9 8.81747C25.5394 9.17767 25.0506 9.38 24.541 9.38C24.2889 9.38 24.0394 9.33036 23.8066 9.23392C23.5738 9.13749 23.3622 8.99613 23.184 8.81794C23.0058 8.63974 22.8645 8.42819 22.768 8.19537C22.6716 7.96255 22.622 7.71301 22.622 7.461C22.622 7.20899 22.6716 6.95945 22.768 6.72663C22.8645 6.49381 23.0058 6.28226 23.184 6.10406C23.3622 5.92587 23.5738 5.78451 23.8066 5.68808C24.0394 5.59164 24.2889 5.542 24.541 5.542C25.598 5.542 26.464 6.402 26.464 7.459Z"/>
        </symbol>

        <symbol id="icon-twitter" width="32" height="32" viewBox="0 0 32 32" xmlns="http://www.w3.org/2000/svg">
            <g clip-path="url(#clip0)">
            <path d="M31.937 6.09348C30.7394 6.61999 29.4708 6.9677 28.172 7.12548C29.5411 6.30378 30.566 5.01383 31.057 3.49448C29.7621 4.24549 28.3527 4.77891 26.885 5.07348C25.8981 4.01894 24.5907 3.31961 23.1657 3.08398C21.7407 2.84836 20.2777 3.08961 19.0039 3.77032C17.73 4.45103 16.7163 5.53313 16.1202 6.84873C15.5241 8.16434 15.3789 9.6399 15.707 11.0465C10.254 10.7915 5.42005 8.17148 2.18705 4.21348C1.59852 5.21437 1.29072 6.35541 1.29605 7.51648C1.29524 8.59585 1.56099 9.65871 2.06969 10.6107C2.57838 11.5627 3.31429 12.3743 4.21205 12.9735C3.17167 12.942 2.15396 12.6619 1.24405 12.1565V12.2355C1.24373 13.7505 1.76726 15.219 2.7259 16.3922C3.68455 17.5653 5.01933 18.371 6.50405 18.6725C5.94164 18.8228 5.36218 18.8997 4.78005 18.9015C4.35905 18.9015 3.95705 18.8605 3.55605 18.7865C3.97858 20.0902 4.79705 21.2298 5.89756 22.0465C6.99806 22.8633 8.32583 23.3167 9.69605 23.3435C7.37446 25.1616 4.50983 26.1479 1.56105 26.1445C1.03875 26.1466 0.516808 26.1172 -0.00195312 26.0565C3.00614 27.9839 6.50441 29.0072 10.077 29.0045C22.144 29.0045 28.738 19.0095 28.738 10.3535C28.738 10.0775 28.738 9.79648 28.717 9.51448C30.0069 8.59003 31.1186 7.43943 31.998 6.11848L31.937 6.09348Z"/>
            </g>
            <defs>
            <clipPath id="clip0">
            <rect width="32" height="32" fill="white"/>
            </clipPath>
            </defs>
        </symbol>

        <symbol id="icon-link" width="32" height="32" viewBox="0 0 32 32" xmlns="http://www.w3.org/2000/svg">
            <path d="M15.2931 8.9294L17.768 6.45452C18.2786 5.94341 18.8849 5.53791 19.5523 5.26119C20.2197 4.98448 20.9351 4.84197 21.6576 4.8418C22.3801 4.84163 23.0955 4.98381 23.763 5.26021C24.4305 5.53662 25.0371 5.94183 25.5479 6.45271C26.0588 6.96358 26.464 7.57011 26.7404 8.23763C27.0168 8.90515 27.159 9.62059 27.1589 10.3431C27.1587 11.0656 27.0162 11.7809 26.7395 12.4483C26.4627 13.1157 26.0572 13.7221 25.5461 14.2327L22.0106 17.7682C21.4999 18.279 20.8936 18.6841 20.2263 18.9605C19.559 19.2369 18.8438 19.3791 18.1215 19.3791C17.3992 19.3791 16.684 19.2369 16.0167 18.9605C15.3495 18.6841 14.7431 18.279 14.2324 17.7682" stroke-width="2" stroke-linecap="round" stroke-linejoin="round"/>
            <path d="M16.7076 23.0708L14.2327 25.5457C13.7221 26.0568 13.1157 26.4623 12.4483 26.739C11.7809 27.0158 11.0656 27.1583 10.3431 27.1584C9.62059 27.1586 8.90515 27.0164 8.23763 26.74C7.57011 26.4636 6.96358 26.0584 6.45271 25.5475C5.94183 25.0367 5.53662 24.4301 5.26021 23.7626C4.98381 23.0951 4.84163 22.3796 4.8418 21.6572C4.84197 20.9347 4.98448 20.2193 5.26119 19.5519C5.53791 18.8845 5.94341 18.2782 6.45452 17.7675L9.99005 14.232C10.5008 13.7213 11.1071 13.3162 11.7744 13.0398C12.4417 12.7634 13.1569 12.6211 13.8791 12.6211C14.6014 12.6211 15.3166 12.7634 15.9839 13.0398C16.6512 13.3162 17.2575 13.7213 17.7682 14.232" stroke-width="2" stroke-linecap="round" stroke-linejoin="round"/>
        </symbol>

        <symbol id="icon-arrow-down" width="10" height="10" viewBox="0 0 10 10" xmlns="http://www.w3.org/2000/svg">
            <path d="M4.63975 7.338C4.67989 7.38796 4.7336 7.42881 4.79626 7.45703C4.85891 7.48525 4.92863 7.5 4.99941 7.5C5.07019 7.5 5.13991 7.48525 5.20256 7.45703C5.26521 7.42881 5.31892 7.38796 5.35906 7.338L9.29687 2.46333C9.34245 2.40711 9.36918 2.34125 9.37415 2.27292C9.37913 2.20459 9.36215 2.1364 9.32508 2.07576C9.28801 2.01511 9.23225 1.96434 9.16387 1.92894C9.09549 1.89355 9.0171 1.87489 8.93721 1.875H1.0616C0.981899 1.87528 0.903797 1.89418 0.835691 1.92966C0.767586 1.96514 0.712054 2.01585 0.675067 2.07636C0.638081 2.13686 0.621039 2.20486 0.625775 2.27305C0.630511 2.34123 0.656845 2.40702 0.701945 2.46333L4.63975 7.338Z"/>
        </symbol>

        <symbol id="icon-dottes" width="25" height="5" viewBox="0 0 25 5" fill="none" xmlns="http://www.w3.org/2000/svg">
            <circle cx="2.5" cy="2.5" r="2.5" fill="#3E54D8"/>
            <circle cx="12.5" cy="2.5" r="2.5" fill="#3E54D8"/>
            <circle cx="22.5" cy="2.5" r="2.5" fill="#3E54D8"/>
        </symbol>

        <symbol id="icon-ArrowsOutCardinal" width="32" height="32" viewBox="0 0 32 32" fill="none" xmlns="http://www.w3.org/2000/svg">
            <path d="M19.5358 25.4648L16.0003 29.0003L12.4648 25.4648"  stroke-width="2" stroke-linecap="round" stroke-linejoin="round"/>
            <path d="M16 20V29"  stroke-width="2" stroke-linecap="round" stroke-linejoin="round"/>
            <path d="M12.4648 6.5355L16.0003 3L19.5358 6.5355"  stroke-width="2" stroke-linecap="round" stroke-linejoin="round"/>
            <path d="M16 12V3"  stroke-width="2" stroke-linecap="round" stroke-linejoin="round"/>
            <path d="M6.5355 19.5358L3 16.0003L6.5355 12.4648"  stroke-width="2" stroke-linecap="round" stroke-linejoin="round"/>
            <path d="M12 16H3"  stroke-width="2" stroke-linecap="round" stroke-linejoin="round"/>
            <path d="M25.4648 12.4648L29.0003 16.0003L25.4648 19.5358"  stroke-width="2" stroke-linecap="round" stroke-linejoin="round"/>
            <path d="M20 16H29" stroke-width="2" stroke-linecap="round" stroke-linejoin="round"/>
        </symbol>

        <symbol id="icon-strategy-sprite-red" width="130" height="260" viewBox="0 0 130 260" fill="none" xmlns="http://www.w3.org/2000/svg">
            <path d="M-130 130C-130 58.203 -71.797 0 0 0C71.797 0 130 58.203 130 130C130 201.797 71.797 260 0 260H-130L-130 130Z" fill="#ED6373"/>
        </symbol>

        <symbol id="icon-strategy-sprite-green" width="126" height="126" viewBox="0 0 126 126" fill="none" xmlns="http://www.w3.org/2000/svg">
            <path d="M0 124C0 55.5167 55.5167 0 124 0L252 0L252 252H124C55.5167 252 0 196.483 0 128L0 124Z" fill="#199F27"/>
        </symbol>
        
        <symbol id="icon-search" width="24" height="24" viewBox="0 0 24 24" fill="none" xmlns="http://www.w3.org/2000/svg">
            <path d="M10.875 18.75C15.2242 18.75 18.75 15.2242 18.75 10.875C18.75 6.52576 15.2242 3 10.875 3C6.52576 3 3 6.52576 3 10.875C3 15.2242 6.52576 18.75 10.875 18.75Z" stroke="#3E54D8" stroke-width="1.5" stroke-linecap="round" stroke-linejoin="round"/>
            <path d="M16.4414 16.4434L20.9977 20.9997" stroke="#3E54D8" stroke-width="1.5" stroke-linecap="round" stroke-linejoin="round"/>
        </symbol>

        <symbol id="icon-pencil" width="24" height="24" viewBox="0 0 24 24" fill="none" xmlns="http://www.w3.org/2000/svg">
            <path d="M8.68934 20.2499H4.5C4.30109 20.2499 4.11032 20.1709 3.96967 20.0302C3.82902 19.8896 3.75 19.6988 3.75 19.4999V15.3105C3.75 15.2121 3.7694 15.1145 3.80709 15.0235C3.84478 14.9325 3.90003 14.8499 3.96967 14.7802L15.2197 3.53022C15.3603 3.38956 15.5511 3.31055 15.75 3.31055C15.9489 3.31055 16.1397 3.38956 16.2803 3.53022L20.4697 7.71956C20.6103 7.86021 20.6893 8.05097 20.6893 8.24989C20.6893 8.4488 20.6103 8.63956 20.4697 8.78022L9.21967 20.0302C9.15003 20.0999 9.06735 20.1551 8.97635 20.1928C8.88536 20.2305 8.78783 20.2499 8.68934 20.2499Z" stroke-width="1.5" stroke-linecap="round" stroke-linejoin="round"/>
            <path d="M12.75 6L18 11.25"  stroke-width="1.5" stroke-linecap="round" stroke-linejoin="round"/>
            <path d="M8.95321 20.2013L3.79883 15.0469"  stroke-width="1.5" stroke-linecap="round" stroke-linejoin="round"/>
        </symbol>

        <symbol id="icon-trash" width="24" height="24" viewBox="0 0 24 24" fill="none" xmlns="http://www.w3.org/2000/svg">
            <path d="M20.25 5.25L3.75 5.25" stroke-width="1.5" stroke-linecap="round" stroke-linejoin="round"/>
            <path d="M9.75 9.75V15.75" stroke-width="1.5" stroke-linecap="round" stroke-linejoin="round"/>
            <path d="M14.25 9.75V15.75" stroke-width="1.5" stroke-linecap="round" stroke-linejoin="round"/>
            <path d="M18.75 5.25V19.5C18.75 19.6989 18.671 19.8897 18.5303 20.0303C18.3897 20.171 18.1989 20.25 18 20.25H6C5.80109 20.25 5.61032 20.171 5.46967 20.0303C5.32902 19.8897 5.25 19.6989 5.25 19.5V5.25" stroke-width="1.5" stroke-linecap="round" stroke-linejoin="round"/>
            <path d="M15.75 5.25V3.75C15.75 3.35218 15.592 2.97064 15.3107 2.68934C15.0294 2.40804 14.6478 2.25 14.25 2.25H9.75C9.35218 2.25 8.97064 2.40804 8.68934 2.68934C8.40804 2.97064 8.25 3.35218 8.25 3.75V5.25" stroke-width="1.5" stroke-linecap="round" stroke-linejoin="round"/>
        </symbol>

        <symbol id="icon-caret-pagination" width="16" height="16" viewBox="0 0 16 16" fill="none" xmlns="http://www.w3.org/2000/svg">
            <path d="M6 13L11 8L6 3" stroke-width="2.5" stroke-linecap="round" stroke-linejoin="round"/>
        </symbol>

        <symbol id="icon-info-2" width="32" height="32" viewBox="0 0 32 32" fill="none" xmlns="http://www.w3.org/2000/svg">
            <path d="M16 28C22.6274 28 28 22.6274 28 16C28 9.37258 22.6274 4 16 4C9.37258 4 4 9.37258 4 16C4 22.6274 9.37258 28 16 28Z" stroke-width="2" stroke-linecap="round" stroke-linejoin="round"/>
            <path d="M15 15H16V22H17" stroke-width="2" stroke-linecap="round" stroke-linejoin="round"/>
            <path d="M16 12C16.8284 12 17.5 11.3284 17.5 10.5C17.5 9.67157 16.8284 9 16 9C15.1716 9 14.5 9.67157 14.5 10.5C14.5 11.3284 15.1716 12 16 12Z"/>
        </symbol>

        <svg id="icon-CalendarBlank" width="20" height="20" viewBox="0 0 20 20" fill="none" xmlns="http://www.w3.org/2000/svg">
            <path d="M16.25 3.125H3.75C3.40482 3.125 3.125 3.40482 3.125 3.75V16.25C3.125 16.5952 3.40482 16.875 3.75 16.875H16.25C16.5952 16.875 16.875 16.5952 16.875 16.25V3.75C16.875 3.40482 16.5952 3.125 16.25 3.125Z" stroke="#3E54D8" stroke-width="1.25" stroke-linecap="round" stroke-linejoin="round"/>
            <path d="M13.75 1.875V4.375" stroke="#3E54D8" stroke-width="1.25" stroke-linecap="round" stroke-linejoin="round"/>
            <path d="M6.25 1.875V4.375" stroke="#3E54D8" stroke-width="1.25" stroke-linecap="round" stroke-linejoin="round"/>
            <path d="M3.125 6.875H16.875" stroke="#3E54D8" stroke-width="1.25" stroke-linecap="round" stroke-linejoin="round"/>
        </svg>

        <symbol id="icon-closeModal" width="29" height="29" viewBox="0 0 29 29" fill="none" xmlns="http://www.w3.org/2000/svg">
            <path d="M27.1562 1.84375L1.84375 27.1562M27.1562 27.1562L1.84375 1.84375" stroke="#3E54D8" stroke-width="2.8125" stroke-linecap="round" stroke-linejoin="round"/>
        </symbol>

        <symbol id="icon-closeModal-white" width="29" height="29" viewBox="0 0 29 29" fill="none" xmlns="http://www.w3.org/2000/svg">
            <path d="M27.1562 1.84375L1.84375 27.1562M27.1562 27.1562L1.84375 1.84375" stroke="#FFFFFF" stroke-width="2.8125" stroke-linecap="round" stroke-linejoin="round"/>
        </symbol>

        <symbol id="icon-plus" width="24" height="24" viewBox="0 0 24 24" fill="none" xmlns="http://www.w3.org/2000/svg">
            <path d="M3.75 12H20.25" stroke="#3E54D8" stroke-width="2" stroke-linecap="round" stroke-linejoin="round"/>
            <path d="M12 3.75V20.25" stroke="#3E54D8" stroke-width="2" stroke-linecap="round" stroke-linejoin="round"/>
        </symbol>

        <symbol id="icon-minus" width="22" height="22" viewBox="0 0 22 22" fill="none" xmlns="http://www.w3.org/2000/svg">
            <path d="M3.4375 11H18.5625" stroke="#3E54D8" stroke-width="2" stroke-linecap="round" stroke-linejoin="round"/>
        </symbol>

        <symbol id="icon-caret-down" width="12" height="12" viewBox="0 0 12 12" fill="none" xmlns="http://www.w3.org/2000/svg">
            <path d="M2.25 4.5L6 8.25L9.75 4.5" stroke-width="1.875" stroke-linecap="round" stroke-linejoin="round"/>
        </symbol>

        <symbol id="icon-bitcoin" width="24" height="24" viewBox="0 0 24 24" fill="none" xmlns="http://www.w3.org/2000/svg">
            <g opacity="0.7" clip-path="url(#clip0)">
            <path d="M11.3849 15.275C12.4959 15.271 14.9249 15.262 14.8969 13.717C14.8699 12.137 12.5369 12.232 11.3999 12.279C11.2729 12.284 11.1599 12.289 11.0679 12.29L11.1199 15.277C11.1949 15.275 11.2849 15.275 11.3849 15.275Z" fill="#F7931A"/>
            <path d="M11.2668 10.9222C12.1938 10.9212 14.2168 10.9192 14.1928 9.51415C14.1668 8.07715 12.2238 8.16215 11.2748 8.20415C11.1678 8.20915 11.0748 8.21315 10.9968 8.21415L11.0438 10.9232L11.2668 10.9222Z" fill="#F7931A"/>
            <path fill-rule="evenodd" clip-rule="evenodd" d="M8.89338 23.5886C15.2944 25.3036 21.8737 21.5048 23.5887 15.1058C25.3036 8.70574 21.5039 2.12642 15.1028 0.412446C8.70578 -1.30346 2.12646 2.4963 0.412484 8.89736C-1.30246 15.2964 2.4963 21.8757 8.89436 23.5896L8.89338 23.5886ZM13.4718 6.64593C15.2233 6.80052 16.6102 7.33881 16.7651 8.94576C16.8806 10.122 16.3882 10.8285 15.6021 11.2288C16.8969 11.5395 17.7086 12.3087 17.5484 14.0342C17.35 16.1761 15.7528 16.7513 13.4721 16.8815L13.4709 19.1318L12.1146 19.1331L12.1144 16.9128C11.7633 16.9127 11.4033 16.9104 11.0304 16.9019L11.0315 19.1322L9.67527 19.1326L9.67461 16.8782L9.29162 16.8745C9.09763 16.8721 8.90164 16.8697 8.7056 16.8703L6.93935 16.8695L7.20865 15.2499C7.20865 15.2499 8.21253 15.2655 8.1948 15.2501C8.57888 15.2488 8.6807 14.9736 8.70473 14.8L8.70582 11.2425L8.80284 11.2421L8.84883 11.2429C8.80114 11.2366 8.75309 11.2335 8.70498 11.2334L8.70531 8.69306C8.6531 8.4181 8.47465 8.09894 7.92555 8.09936C7.9409 8.07962 6.93941 8.09915 6.93941 8.09915L6.93868 6.65091L8.81096 6.65159L8.81084 6.65859C9.09188 6.65849 9.38101 6.65354 9.67416 6.64765L9.67506 4.41833L11.0313 4.419L11.0311 6.60333C11.3933 6.59665 11.7575 6.589 12.1145 6.58923L12.1144 4.4189L13.4716 4.41859L13.4717 6.64793L13.4718 6.64593Z" fill="#F7931A"/>
            </g>
            <defs>
            <clipPath id="clip0">
            <rect width="24" height="24" fill="white"/>
            </clipPath>
            </defs>
        </symbol>


        <symbol id="icon-dollar" width="24" height="24" viewBox="0 0 24 24" fill="none" xmlns="http://www.w3.org/2000/svg">
            <g opacity="0.7">
                <path fill-rule="evenodd" clip-rule="evenodd" d="M12 24C5.37225 24 0 18.6278 0 12C0 5.37225 5.37225 0 12 0C18.6278 0 24 5.37225 24 12C24 18.6278 18.6278 24 12 24ZM16.875 14.3655C16.875 12.4732 15.693 11.4045 12.9277 10.7385V7.4085C13.7827 7.584 14.601 7.95225 15.4012 8.5305L16.4205 6.8835C15.4165 6.14815 14.2373 5.68888 13.0005 5.5515V4.5H11.418V5.51625C9.144 5.69175 7.59825 6.9885 7.59825 8.88075C7.59825 10.8608 8.835 11.8245 11.4908 12.4905V15.9255C10.308 15.75 9.32625 15.2243 8.289 14.418L7.125 16.0125C8.37096 16.9717 9.85551 17.5718 11.418 17.748V19.5H13.0005V17.7653C15.3105 17.5725 16.875 16.293 16.875 14.3655ZM11.49 10.3702C10.0897 9.9675 9.74475 9.49425 9.74475 8.75775C9.74475 7.9875 10.3448 7.374 11.4908 7.28625L11.49 10.3702ZM14.7285 14.4877C14.7285 15.3292 14.0737 15.9075 12.9277 15.9952V12.8235C14.3467 13.227 14.7285 13.6995 14.7285 14.4885V14.4877Z" fill="#199F27"/>
            </g>
        </symbol>


        <symbol id="icon-ICP" width="20" height="20" viewBox="0 0 20 20" fill="none" xmlns="http://www.w3.org/2000/svg">
            <circle cx="10" cy="10" r="10" fill="#A4E3D4"/>
            <path d="M14.3564 6.24609C13.5184 6.24609 12.6043 6.69272 11.6394 7.57321C11.1824 7.98795 10.7825 8.43457 10.4905 8.79188C10.4905 8.79188 10.9602 9.32143 11.4744 9.8893C11.7537 9.54475 12.1536 9.07898 12.617 8.65788C13.4739 7.87309 14.0325 7.71359 14.3564 7.71359C15.5624 7.71359 16.54 8.70254 16.54 9.92758C16.54 11.1399 15.5624 12.1288 14.3564 12.1416C14.2991 12.1416 14.2293 12.1352 14.1468 12.1161C14.4959 12.2756 14.8768 12.3904 15.2323 12.3904C17.4413 12.3904 17.8729 10.8974 17.8983 10.7889C17.9618 10.5146 17.9999 10.2275 17.9999 9.93396C17.9936 7.89861 16.3622 6.24609 14.3564 6.24609Z" fill="url(#paint0_linear)"/>
            <path d="M6.64438 13.6013C7.48229 13.6013 8.39636 13.1547 9.36124 12.2742C9.81828 11.8595 10.2182 11.4129 10.5102 11.0556C10.5102 11.0556 10.0404 10.526 9.52628 9.95814C9.24697 10.3027 8.84706 10.7685 8.38367 11.1896C7.52672 11.968 6.96176 12.1339 6.64438 12.1339C5.43829 12.1339 4.46072 11.1449 4.46072 9.91986C4.46072 8.70758 5.43829 7.71863 6.64438 7.70587C6.70151 7.70587 6.77133 7.71224 6.85385 7.73138C6.50472 7.57188 6.12385 7.45703 5.76838 7.45703C3.55934 7.45703 3.12768 8.95005 3.1023 9.05851C3.03882 9.33287 3.00073 9.61999 3.00073 9.91348C3.00073 11.9488 4.63212 13.6013 6.64438 13.6013Z" fill="url(#paint1_linear)"/>
            <path fill-rule="evenodd" clip-rule="evenodd" d="M8.32118 8.68979C8.07996 8.46009 6.89927 7.52217 5.76936 7.49027C3.75577 7.44076 3.16386 8.87424 3.11282 9.05913C3.49852 7.45166 4.93621 6.25246 6.64536 6.24609C8.0387 6.24609 9.44675 7.58396 10.4871 8.79137C10.4888 8.78933 10.4904 8.78736 10.492 8.78546C10.492 8.78546 10.9617 9.31503 11.4759 9.88288C11.4759 9.88288 12.0599 10.5592 12.682 11.1526C12.9232 11.3823 14.0975 12.3074 15.2274 12.3393C17.2969 12.3968 17.8682 10.8846 17.8998 10.7698C17.5191 12.384 16.0781 13.5899 14.3641 13.5963C12.9703 13.5963 11.5618 12.2575 10.5171 11.0498C10.515 11.0523 10.5131 11.0546 10.5112 11.0569C10.5112 11.0569 10.0414 10.5273 9.52726 9.95948C9.52726 9.95948 8.94327 9.28315 8.32118 8.68979ZM3.10962 9.07261C3.11019 9.06935 3.11125 9.06484 3.11282 9.05913C3.11175 9.06362 3.11068 9.06812 3.10962 9.07261Z" fill="#29ABE2"/>
        </symbol>

        <symbol id="icon-BCH" width="20" height="20" viewBox="0 0 20 20" fill="none" xmlns="http://www.w3.org/2000/svg">
            <circle cx="10" cy="10" r="10" fill="#F7931A"/>
            <path d="M12.4859 6.70624C12.0842 5.55991 10.9869 5.42263 9.70325 5.62855L9.30157 4.00195L8.32186 4.24694L8.71384 5.83424C8.45915 5.90288 8.19452 5.9713 7.93983 6.03994L7.54786 4.44292L6.56815 4.6879L6.96983 6.31427C6.76414 6.37298 6.54851 6.43191 6.35252 6.48091V6.4712L5.00049 6.81417L5.26511 7.87245C5.26511 7.87245 5.98042 7.67647 5.97048 7.69611C6.36223 7.59812 6.54851 7.7941 6.63679 7.99009L7.09718 9.85173C7.13646 9.84202 7.16582 9.83209 7.20488 9.83209L7.09718 9.86144L7.73391 12.4677C7.74362 12.5951 7.7242 12.8204 7.44986 12.8891C7.46951 12.8988 6.73456 13.0654 6.73456 13.0654L6.83255 14.2998L8.10623 13.9765C8.34151 13.9178 8.57656 13.8591 8.80189 13.8098L9.20358 15.4558L10.1833 15.2109L9.7816 13.5746C10.0559 13.5159 10.3106 13.4472 10.5653 13.3885L10.967 15.0149L11.9467 14.7699L11.545 13.1239C13.1617 12.6145 14.21 11.8992 13.965 10.2922C13.7691 8.99892 13.044 8.58753 12.0544 8.59724C12.5541 8.15627 12.7794 7.54889 12.4854 6.70624H12.4859ZM11.9862 10.5763C12.2899 11.8109 10.1736 12.193 9.5172 12.3596L8.97824 10.1746C9.64454 10.0179 11.6726 9.30261 11.9862 10.5763ZM10.7812 7.61731C11.0555 8.73429 9.29186 9.04769 8.74319 9.18497L8.25322 7.20592C8.80189 7.05893 10.487 6.44162 10.7809 7.61731H10.7812Z" fill="white"/>
        </symbol>

        <symbol id="icon-LTC" width="20" height="20" viewBox="0 0 20 20" fill="none" xmlns="http://www.w3.org/2000/svg">
            <g clip-path="url(#clip0)">
            <path d="M10.0014 18.9174C14.9265 18.9174 18.9191 14.9248 18.9191 9.99971C18.9191 5.07461 14.9265 1.08203 10.0014 1.08203C5.07632 1.08203 1.08374 5.07461 1.08374 9.99971C1.08374 14.9248 5.07632 18.9174 10.0014 18.9174Z" fill="white"/>
            <path d="M10 0C8.02219 0 6.08879 0.58649 4.4443 1.6853C2.79981 2.78412 1.51809 4.3459 0.761209 6.17316C0.00433281 8.00043 -0.193701 10.0111 0.192152 11.9509C0.578004 13.8907 1.53041 15.6725 2.92894 17.0711C4.32746 18.4696 6.10929 19.422 8.0491 19.8078C9.98891 20.1937 11.9996 19.9957 13.8268 19.2388C15.6541 18.4819 17.2159 17.2002 18.3147 15.5557C19.4135 13.9112 20 11.9778 20 10C20.0038 8.69059 19.7497 7.39326 19.2521 6.18207C18.7546 4.97087 18.0233 3.86954 17.1001 2.94095C16.1769 2.01237 15.0799 1.27471 13.8716 0.770101C12.6634 0.265491 11.3675 0.00381009 10.0581 0H10ZM10.1695 10.339L9.12833 13.8499H14.6973C14.7342 13.8486 14.771 13.8546 14.8056 13.8675C14.8402 13.8804 14.8718 13.9001 14.8988 13.9252C14.9258 13.9504 14.9476 13.9807 14.9629 14.0143C14.9781 14.0479 14.9866 14.0842 14.9879 14.1211V14.2131L14.5036 15.8838C14.4823 15.9628 14.4347 16.0322 14.3687 16.0806C14.3027 16.129 14.2222 16.1535 14.1404 16.1501H5.61744L7.04601 11.2833L5.44795 11.7676L5.81114 10.6538L7.40921 10.1695L9.41889 3.3414C9.44102 3.26284 9.48879 3.19394 9.55461 3.14567C9.62043 3.0974 9.70051 3.07255 9.78209 3.07506H11.9371C11.9739 3.07377 12.0107 3.07976 12.0453 3.09269C12.0799 3.10562 12.1116 3.12524 12.1385 3.15043C12.1655 3.17561 12.1873 3.20587 12.2026 3.23947C12.2178 3.27307 12.2264 3.30935 12.2276 3.34625V3.43826L10.5327 9.20097L12.1308 8.71671L11.7918 9.87893L10.1695 10.339Z" fill="#345D9D"/>
            </g>
            <defs>
            <clipPath id="clip0">
            <rect width="20" height="20" fill="white"/>
            </clipPath>
            </defs>
        </symbol>

        <symbol id="icon-ethereum" width="32" height="32" viewBox="0 0 32 32" fill="none" xmlns="http://www.w3.org/2000/svg">
            <circle cx="16" cy="16" r="16" fill="#111A44"/>
            <path d="M15.972 5.5L11.058 12.262L9 22.258L15.972 26.5L22.944 22.258L20.844 12.22L15.972 5.5ZM10.134 21.796L11.688 14.194L15.216 24.904L10.134 21.796ZM12.192 12.472L15.972 7.264L19.752 12.472L15.972 23.896L12.192 12.472ZM16.686 24.904L20.214 14.194L21.768 21.796L16.686 24.904Z" fill="white"/>
        </symbol>

        <symbol id="icon-breadcrumbClose" width="24" height="24" viewBox="0 0 24 24" fill="none" xmlns="http://www.w3.org/2000/svg">
            <circle cx="12" cy="12" r="11.5714" fill="white" stroke="#D3E3FF" stroke-width="0.857143"/>
            <path d="M16.3392 7.66113L7.66064 16.3397M16.3392 16.3397L7.66064 7.66113" stroke="#373943" stroke-width="1.5" stroke-linecap="round" stroke-linejoin="round"/>
        </symbol>

        <symbol id="icon-modal-notify-check" width="228" height="224" viewBox="0 0 228 224" fill="none" xmlns="http://www.w3.org/2000/svg">
            <path d="M114 92.625V128.25" stroke="#F3B63F" stroke-width="14.25" stroke-linecap="round" stroke-linejoin="round"/>
            <path d="M101.666 35.6114L23.3125 170.98C22.0588 173.146 21.3976 175.604 21.3955 178.106C21.3934 180.609 22.0506 183.068 23.3007 185.236C24.5509 187.404 26.35 189.205 28.5171 190.457C30.6842 191.709 33.1428 192.368 35.6456 192.368H192.353C194.856 192.368 197.315 191.709 199.482 190.457C201.649 189.205 203.448 187.405 204.698 185.236C205.948 183.068 206.605 180.609 206.603 178.106C206.601 175.604 205.94 173.146 204.686 170.98L126.332 35.6114C125.081 33.4488 123.282 31.6534 121.118 30.4052C118.953 29.157 116.498 28.5 113.999 28.5C111.501 28.5 109.046 29.157 106.881 30.4052C104.717 31.6534 102.918 33.4488 101.666 35.6114V35.6114Z" stroke="#F3B63F" stroke-width="14.25" stroke-linecap="round" stroke-linejoin="round"/>
            <path d="M114 171C119.903 171 124.688 166.215 124.688 160.312C124.688 154.41 119.903 149.625 114 149.625C108.097 149.625 103.312 154.41 103.312 160.312C103.312 166.215 108.097 171 114 171Z" fill="#F3B63F"/>
        </symbol>

        <symbol id="icon-modal-notify-thank" width="228" height="228" viewBox="0 0 228 228" fill="none" xmlns="http://www.w3.org/2000/svg">
            <path d="M153.188 92.625L100.937 142.5L74.8125 117.562" stroke="#3E54D8" stroke-width="12" stroke-linecap="round" stroke-linejoin="round"/>
            <path d="M114 199.5C161.22 199.5 199.5 161.22 199.5 114C199.5 66.7797 161.22 28.5 114 28.5C66.7797 28.5 28.5 66.7797 28.5 114C28.5 161.22 66.7797 199.5 114 199.5Z" stroke="#3E54D8" stroke-width="12" stroke-linecap="round" stroke-linejoin="round"/>
        </symbol>

        <svg id="icon-rocket-launch" width="32" height="32" viewBox="0 0 32 32" fill="none" xmlns="http://www.w3.org/2000/svg">
            <path d="M11.7576 23.0706C10.3434 27.3133 4.68652 27.3133 4.68652 27.3133C4.68652 27.3133 4.68652 21.6564 8.92916 20.2422" stroke-width="2" stroke-linecap="round" stroke-linejoin="round"/>
            <path d="M24.4849 13.1715L15.9996 21.6568L10.3428 15.9999L18.8281 7.51466C22.0411 4.30164 25.2541 4.33298 26.6244 4.53743C26.8353 4.56888 27.0306 4.66727 27.1815 4.8181C27.3323 4.96894 27.4307 5.16423 27.4621 5.37521C27.6666 6.74548 27.6979 9.9585 24.4849 13.1715Z" stroke-width="2" stroke-linecap="round" stroke-linejoin="round"/>
            <path d="M23.0711 14.5859V22.657C23.0711 22.7883 23.0452 22.9184 22.9949 23.0397C22.9447 23.161 22.871 23.2713 22.7782 23.3641L18.7355 27.4068C18.6075 27.5348 18.4471 27.6257 18.2716 27.6697C18.096 27.7137 17.9118 27.7093 17.7386 27.6568C17.5653 27.6044 17.4096 27.5059 17.2879 27.3719C17.1663 27.2378 17.0833 27.0733 17.0478 26.8958L16 21.657" stroke-width="2" stroke-linecap="round" stroke-linejoin="round"/>
            <path d="M17.4146 8.92871H9.3435C9.21218 8.92871 9.08214 8.95458 8.96082 9.00483C8.83949 9.05509 8.72925 9.12874 8.63639 9.2216L4.59367 13.2643C4.46569 13.3923 4.37484 13.5526 4.33081 13.7282C4.28679 13.9038 4.29124 14.088 4.34369 14.2612C4.39614 14.4344 4.49463 14.5902 4.62864 14.7119C4.76266 14.8335 4.92718 14.9165 5.10467 14.952L10.3435 15.9998" stroke-width="2" stroke-linecap="round" stroke-linejoin="round"/>
        </svg>




        <linearGradient id="paint0_linear" x1="12.4453" y1="6.77886" x2="17.4875" y2="11.9736" gradientUnits="userSpaceOnUse">
            <stop offset="0.21" stop-color="#F15A24"/>
            <stop offset="0.6841" stop-color="#FBB03B"/>
        </linearGradient>
        
        <linearGradient id="paint1_linear" x1="8.55128" y1="13.0658" x2="3.50903" y2="7.87112" gradientUnits="userSpaceOnUse">
            <stop offset="0.21" stop-color="#ED1E79"/>
            <stop offset="0.8929" stop-color="#522785"/>
        </linearGradient>

    </defs>
</svg>