<svg>
    <defs>

        <symbol id="arrow" width="11" height="17" viewBox="0 0 11 17" xmlns="http://www.w3.org/2000/svg">
            <path d="M9.99666 9.34159L2.68691 16.6511C2.22192 17.1163 1.46803 17.1163 1.00326 16.6511C0.538463 16.1863 0.538463 15.4324 1.00326 14.9677L7.47126 8.49988L1.00345 2.03231C0.538651 1.56732 0.538651 0.813539 1.00345 0.34874C1.46825 -0.116247 2.22211 -0.116247 2.6871 0.34874L9.99685 7.65836C10.2292 7.89087 10.3453 8.19528 10.3453 8.49984C10.3453 8.80455 10.229 9.10919 9.99666 9.34159Z"/>
        </symbol>

        <symbol id="arrow_big_grey" width="182" height="455" viewBox="0 0 182 455" fill="none" xmlns="http://www.w3.org/2000/svg">
            <path d="M245 439L32 226L242 16" stroke="#F2F2F2" stroke-width="45"/>
        </symbol>

        <symbol id="arrow_big_yellow" width="257" height="721" viewBox="0 0 257 721" fill="none" xmlns="http://www.w3.org/2000/svg">
            <path d="M363 720L1 357.95L357.901 1" stroke="#F9B233"/>
        </symbol>

        <symbol id="icon_logout" viewBox="0 0 512.016 512" xmlns="http://www.w3.org/2000/svg">
            <path d="m496 240.007812h-202.667969c-8.832031 0-16-7.167968-16-16 0-8.832031 7.167969-16 16-16h202.667969c8.832031 0 16 7.167969 16 16 0 8.832032-7.167969 16-16 16zm0 0"/><path d="m416 320.007812c-4.097656 0-8.191406-1.558593-11.308594-4.691406-6.25-6.253906-6.25-16.386718 0-22.636718l68.695313-68.691407-68.695313-68.695312c-6.25-6.25-6.25-16.382813 0-22.632813 6.253906-6.253906 16.386719-6.253906 22.636719 0l80 80c6.25 6.25 6.25 16.382813 0 22.632813l-80 80c-3.136719 3.15625-7.230469 4.714843-11.328125 4.714843zm0 0"/><path d="m170.667969 512.007812c-4.566407 0-8.898438-.640624-13.226563-1.984374l-128.386718-42.773438c-17.46875-6.101562-29.054688-22.378906-29.054688-40.574219v-384c0-23.53125 19.136719-42.6679685 42.667969-42.6679685 4.5625 0 8.894531.6406255 13.226562 1.9843755l128.382813 42.773437c17.472656 6.101563 29.054687 22.378906 29.054687 40.574219v384c0 23.53125-19.132812 42.667968-42.664062 42.667968zm-128-480c-5.867188 0-10.667969 4.800782-10.667969 10.667969v384c0 4.542969 3.050781 8.765625 7.402344 10.28125l127.785156 42.582031c.917969.296876 2.113281.46875 3.480469.46875 5.867187 0 10.664062-4.800781 10.664062-10.667968v-384c0-4.542969-3.050781-8.765625-7.402343-10.28125l-127.785157-42.582032c-.917969-.296874-2.113281-.46875-3.476562-.46875zm0 0"/><path d="m325.332031 170.675781c-8.832031 0-16-7.167969-16-16v-96c0-14.699219-11.964843-26.667969-26.664062-26.667969h-240c-8.832031 0-16-7.167968-16-16 0-8.832031 7.167969-15.9999995 16-15.9999995h240c32.363281 0 58.664062 26.3046875 58.664062 58.6679685v96c0 8.832031-7.167969 16-16 16zm0 0"/><path d="m282.667969 448.007812h-85.335938c-8.832031 0-16-7.167968-16-16 0-8.832031 7.167969-16 16-16h85.335938c14.699219 0 26.664062-11.96875 26.664062-26.667968v-96c0-8.832032 7.167969-16 16-16s16 7.167968 16 16v96c0 32.363281-26.300781 58.667968-58.664062 58.667968zm0 0"/>
        </symbol>

        <symbol id="icon_user" viewBox="-42 0 512 512.001" xmlns="http://www.w3.org/2000/svg">
            <path d="m210.351562 246.632812c33.882813 0 63.21875-12.152343 87.195313-36.128906 23.96875-23.972656 36.125-53.304687 36.125-87.191406 0-33.875-12.152344-63.210938-36.128906-87.191406-23.976563-23.96875-53.3125-36.121094-87.191407-36.121094-33.886718 0-63.21875 12.152344-87.191406 36.125s-36.128906 53.308594-36.128906 87.1875c0 33.886719 12.15625 63.222656 36.128906 87.195312 23.980469 23.96875 53.316406 36.125 87.191406 36.125zm-65.972656-189.292968c18.394532-18.394532 39.972656-27.335938 65.972656-27.335938 25.996094 0 47.578126 8.941406 65.976563 27.335938 18.394531 18.398437 27.339844 39.980468 27.339844 65.972656 0 26-8.945313 47.578125-27.339844 65.976562-18.398437 18.398438-39.980469 27.339844-65.976563 27.339844-25.992187 0-47.570312-8.945312-65.972656-27.339844-18.398437-18.394531-27.34375-39.976562-27.34375-65.976562 0-25.992188 8.945313-47.574219 27.34375-65.972656zm0 0"/><path d="m426.128906 393.703125c-.691406-9.976563-2.089844-20.859375-4.148437-32.351563-2.078125-11.578124-4.753907-22.523437-7.957031-32.527343-3.3125-10.339844-7.808594-20.550781-13.375-30.335938-5.769532-10.15625-12.550782-19-20.160157-26.277343-7.957031-7.613282-17.699219-13.734376-28.964843-18.199219-11.226563-4.441407-23.667969-6.691407-36.976563-6.691407-5.226563 0-10.28125 2.144532-20.042969 8.5-6.007812 3.917969-13.035156 8.449219-20.878906 13.460938-6.707031 4.273438-15.792969 8.277344-27.015625 11.902344-10.949219 3.542968-22.066406 5.339844-33.042969 5.339844-10.96875 0-22.085937-1.796876-33.042968-5.339844-11.210938-3.621094-20.300782-7.625-26.996094-11.898438-7.769532-4.964844-14.800782-9.496094-20.898438-13.46875-9.753906-6.355468-14.808594-8.5-20.035156-8.5-13.3125 0-25.75 2.253906-36.972656 6.699219-11.257813 4.457031-21.003906 10.578125-28.96875 18.199219-7.609375 7.28125-14.390625 16.121094-20.15625 26.273437-5.558594 9.785157-10.058594 19.992188-13.371094 30.339844-3.199219 10.003906-5.875 20.945313-7.953125 32.523437-2.0625 11.476563-3.457031 22.363282-4.148437 32.363282-.679688 9.777344-1.023438 19.953125-1.023438 30.234375 0 26.726562 8.496094 48.363281 25.25 64.320312 16.546875 15.746094 38.4375 23.730469 65.066406 23.730469h246.53125c26.621094 0 48.511719-7.984375 65.0625-23.730469 16.757813-15.945312 25.253906-37.589843 25.253906-64.324219-.003906-10.316406-.351562-20.492187-1.035156-30.242187zm-44.90625 72.828125c-10.933594 10.40625-25.449218 15.464844-44.378906 15.464844h-246.527344c-18.933594 0-33.449218-5.058594-44.378906-15.460938-10.722656-10.207031-15.933594-24.140625-15.933594-42.585937 0-9.59375.316406-19.066407.949219-28.160157.617187-8.921874 1.878906-18.722656 3.75-29.136718 1.847656-10.285156 4.199219-19.9375 6.996094-28.675782 2.683593-8.378906 6.34375-16.675781 10.882812-24.667968 4.332031-7.617188 9.316407-14.152344 14.816407-19.417969 5.144531-4.925781 11.628906-8.957031 19.269531-11.980469 7.066406-2.796875 15.007812-4.328125 23.628906-4.558594 1.050781.558594 2.921875 1.625 5.953125 3.601563 6.167969 4.019531 13.277344 8.605469 21.136719 13.625 8.859375 5.648437 20.273437 10.75 33.910156 15.152344 13.941406 4.507812 28.160156 6.796875 42.273437 6.796875 14.113282 0 28.335938-2.289063 42.269532-6.792969 13.648437-4.410156 25.058594-9.507813 33.929687-15.164063 8.042969-5.140624 14.953125-9.59375 21.121094-13.617187 3.03125-1.972656 4.902344-3.042969 5.953125-3.601563 8.625.230469 16.566406 1.761719 23.636719 4.558594 7.636719 3.023438 14.121093 7.058594 19.265625 11.980469 5.5 5.261719 10.484375 11.796875 14.816406 19.421875 4.542969 7.988281 8.207031 16.289062 10.886719 24.660156 2.800781 8.75 5.15625 18.398438 7 28.675782 1.867187 10.433593 3.132812 20.238281 3.75 29.144531v.007812c.636719 9.058594.957031 18.527344.960937 28.148438-.003906 18.449219-5.214844 32.378906-15.9375 42.582031zm0 0"/>
        </symbol>

        <symbol id="icon_window_max" enable-background="new 0 0 24 24" viewBox="0 0 24 24"  xmlns="http://www.w3.org/2000/svg">
            <g>
                <path d="m15 9.75c-.192 0-.384-.073-.53-.22-.293-.293-.293-.768 0-1.061l8.25-8.25c.293-.293.768-.293 1.061 0s.293.768 0 1.061l-8.25 8.25c-.147.147-.339.22-.531.22z"/></g><g><path d="m20.25 10h-5.5c-.414 0-.75-.336-.75-.75v-5.5c0-.414.336-.75.75-.75s.75.336.75.75v4.75h4.75c.414 0 .75.336.75.75s-.336.75-.75.75z"/></g><g><path d="m17.25 24h-14.5c-1.517 0-2.75-1.233-2.75-2.75v-11.5c0-.981.529-1.89 1.38-2.373.361-.205.818-.077 1.022.283.205.36.078.818-.282 1.022-.388.22-.62.62-.62 1.068v11.5c0 .689.561 1.25 1.25 1.25h14.5c.689 0 1.25-.561 1.25-1.25v-2c0-.414.336-.75.75-.75s.75.336.75.75v2c0 1.517-1.233 2.75-2.75 2.75z"/></g><g><path d="m1.75 12h-1c-.414 0-.75-.336-.75-.75s.336-.75.75-.75h1c.414 0 .75.336.75.75s-.336.75-.75.75z"/></g><g><path d="m21.25 17h-14.5c-1.517 0-2.75-1.233-2.75-2.75v-11.5c0-1.517 1.233-2.75 2.75-2.75h11.5c.414 0 .75.336.75.75s-.336.75-.75.75h-11.5c-.689 0-1.25.561-1.25 1.25v11.5c0 .689.561 1.25 1.25 1.25h14.5c.689 0 1.25-.561 1.25-1.25v-8.5c0-.414.336-.75.75-.75s.75.336.75.75v8.5c0 1.517-1.233 2.75-2.75 2.75z"/></g><g>
                <path d="m11.25 5h-6.5c-.414 0-.75-.336-.75-.75s.336-.75.75-.75h6.5c.414 0 .75.336.75.75s-.336.75-.75.75z"/>
            </g>
        </symbol>

        <symbol id="icon_calendar" xmlns="http://www.w3.org/2000/svg" viewBox="0 0 512 512" style="enable-background:new 0 0 512 512;" xml:space="preserve"><g><g><g><circle cx="386" cy="210" r="20"/><path d="M432,40h-26V20c0-11.046-8.954-20-20-20c-11.046,0-20,8.954-20,20v20h-91V20c0-11.046-8.954-20-20-20 c-11.046,0-20,8.954-20,20v20h-90V20c0-11.046-8.954-20-20-20s-20,8.954-20,20v20H80C35.888,40,0,75.888,0,120v312 c0,44.112,35.888,80,80,80h153c11.046,0,20-8.954,20-20c0-11.046-8.954-20-20-20H80c-22.056,0-40-17.944-40-40V120 c0-22.056,17.944-40,40-40h25v20c0,11.046,8.954,20,20,20s20-8.954,20-20V80h90v20c0,11.046,8.954,20,20,20s20-8.954,20-20V80h91 v20c0,11.046,8.954,20,20,20c11.046,0,20-8.954,20-20V80h26c22.056,0,40,17.944,40,40v114c0,11.046,8.954,20,20,20 c11.046,0,20-8.954,20-20V120C512,75.888,476.112,40,432,40z"/><path d="M391,270c-66.72,0-121,54.28-121,121s54.28,121,121,121s121-54.28,121-121S457.72,270,391,270z M391,472 c-44.663,0-81-36.336-81-81s36.337-81,81-81c44.663,0,81,36.336,81,81S435.663,472,391,472z"/>
            <path d="M420,371h-9v-21c0-11.046-8.954-20-20-20c-11.046,0-20,8.954-20,20v41c0,11.046,8.954,20,20,20h29 c11.046,0,20-8.954,20-20C440,379.954,431.046,371,420,371z"/>
                    <circle cx="299" cy="210" r="20"/><circle cx="212" cy="297" r="20"/><circle cx="125" cy="210" r="20"/><circle cx="125" cy="297" r="20"/><circle cx="125" cy="384" r="20"/><circle cx="212" cy="384" r="20"/><circle cx="212" cy="210" r="20"/>
                </g></g></g>
        </symbol>

        <symbol id="icon_add" xmlns="http://www.w3.org/2000/svg" viewBox="0 0 477.867 477.867" style="enable-background:new 0 0 477.867 477.867;" xml:space="preserve">
            <g><g><path d="M392.533,0h-307.2C38.228,0.056,0.056,38.228,0,85.333v307.2c0.056,47.105,38.228,85.277,85.333,85.333h307.2 c47.105-0.056,85.277-38.228,85.333-85.333v-307.2C477.81,38.228,439.638,0.056,392.533,0z M443.733,392.533 c0,28.277-22.923,51.2-51.2,51.2h-307.2c-28.277,0-51.2-22.923-51.2-51.2v-307.2c0-28.277,22.923-51.2,51.2-51.2h307.2 c28.277,0,51.2,22.923,51.2,51.2V392.533z"/></g></g><g><g><path d="M324.267,221.867H256V153.6c0-9.426-7.641-17.067-17.067-17.067s-17.067,7.641-17.067,17.067v68.267H153.6 c-9.426,0-17.067,7.641-17.067,17.067S144.174,256,153.6,256h68.267v68.267c0,9.426,7.641,17.067,17.067,17.067 S256,333.692,256,324.267V256h68.267c9.426,0,17.067-7.641,17.067-17.067S333.692,221.867,324.267,221.867z"/></g></g>
        </symbol>

        <symbol id="icon_add_pencil" enable-background="new 0 0 24 24" viewBox="0 0 24 24" xmlns="http://www.w3.org/2000/svg">
            <path d="m17.5 24c-3.584 0-6.5-2.916-6.5-6.5s2.916-6.5 6.5-6.5 6.5 2.916 6.5 6.5-2.916 6.5-6.5 6.5zm0-11.5c-2.757 0-5 2.243-5 5s2.243 5 5 5 5-2.243 5-5-2.243-5-5-5z"/><path d="m17.5 21c-.414 0-.75-.336-.75-.75v-5.5c0-.414.336-.75.75-.75s.75.336.75.75v5.5c0 .414-.336.75-.75.75z"/><path d="m20.25 18.25h-5.5c-.414 0-.75-.336-.75-.75s.336-.75.75-.75h5.5c.414 0 .75.336.75.75s-.336.75-.75.75z"/><path d="m19.871 9.011c-.192 0-.384-.073-.53-.22l-4.135-4.134c-.293-.293-.293-.768 0-1.061s.768-.293 1.061 0l4.135 4.134c.293.293.293.768 0 1.061-.147.147-.339.22-.531.22z"/><path d="m.75 24c-.195 0-.387-.076-.53-.22-.206-.206-.274-.513-.175-.786l2.38-6.56c.038-.104.097-.197.175-.274l15.08-15.07c1.392-1.404 3.836-1.406 5.233.002.7.701 1.087 1.628 1.087 2.608 0 .999-.389 1.931-1.094 2.625l-3.135 3.135c-.293.293-.768.293-1.061 0s-.293-.768 0-1.061l3.14-3.14c.421-.414.65-.967.65-1.56 0-.58-.231-1.13-.65-1.55-.833-.84-2.279-.838-3.107-.002l-14.965 14.956-1.776 4.896 4.896-1.776 1.502-1.503c.293-.293.768-.293 1.061 0s.293.768 0 1.061l-1.621 1.619c-.078.078-.171.138-.274.175l-6.56 2.38c-.084.03-.17.045-.256.045z"/><path d="m7.308 21.62c-.192 0-.384-.073-.53-.22l-4.178-4.177c-.293-.293-.293-.768 0-1.061s.768-.293 1.061 0l4.178 4.178c.293.293.293.768 0 1.061-.147.146-.339.219-.531.219z"/>
        </symbol>

        <symbol id="icon_add_pencil" enable-background="new 0 0 24 24" viewBox="0 0 24 24" xmlns="http://www.w3.org/2000/svg">
            <path d="m17.5 24c-3.584 0-6.5-2.916-6.5-6.5s2.916-6.5 6.5-6.5 6.5 2.916 6.5 6.5-2.916 6.5-6.5 6.5zm0-11.5c-2.757 0-5 2.243-5 5s2.243 5 5 5 5-2.243 5-5-2.243-5-5-5z"/><path d="m17.5 21c-.414 0-.75-.336-.75-.75v-5.5c0-.414.336-.75.75-.75s.75.336.75.75v5.5c0 .414-.336.75-.75.75z"/><path d="m20.25 18.25h-5.5c-.414 0-.75-.336-.75-.75s.336-.75.75-.75h5.5c.414 0 .75.336.75.75s-.336.75-.75.75z"/><path d="m19.871 9.011c-.192 0-.384-.073-.53-.22l-4.135-4.134c-.293-.293-.293-.768 0-1.061s.768-.293 1.061 0l4.135 4.134c.293.293.293.768 0 1.061-.147.147-.339.22-.531.22z"/><path d="m.75 24c-.195 0-.387-.076-.53-.22-.206-.206-.274-.513-.175-.786l2.38-6.56c.038-.104.097-.197.175-.274l15.08-15.07c1.392-1.404 3.836-1.406 5.233.002.7.701 1.087 1.628 1.087 2.608 0 .999-.389 1.931-1.094 2.625l-3.135 3.135c-.293.293-.768.293-1.061 0s-.293-.768 0-1.061l3.14-3.14c.421-.414.65-.967.65-1.56 0-.58-.231-1.13-.65-1.55-.833-.84-2.279-.838-3.107-.002l-14.965 14.956-1.776 4.896 4.896-1.776 1.502-1.503c.293-.293.768-.293 1.061 0s.293.768 0 1.061l-1.621 1.619c-.078.078-.171.138-.274.175l-6.56 2.38c-.084.03-.17.045-.256.045z"/><path d="m7.308 21.62c-.192 0-.384-.073-.53-.22l-4.178-4.177c-.293-.293-.293-.768 0-1.061s.768-.293 1.061 0l4.178 4.178c.293.293.293.768 0 1.061-.147.146-.339.219-.531.219z"/>
        </symbol>

        <symbol id="icon-portfel" width="24" height="24" viewBox="0 0 24 24" fill="none" xmlns="http://www.w3.org/2000/svg">
            <path d="M20.25 6.75H3.75C3.33579 6.75 3 7.08579 3 7.5V19.5C3 19.9142 3.33579 20.25 3.75 20.25H20.25C20.6642 20.25 21 19.9142 21 19.5V7.5C21 7.08579 20.6642 6.75 20.25 6.75Z" stroke-width="1.5" stroke-linecap="round" stroke-linejoin="round"/>
            <path d="M15.75 6.75V5.25C15.75 4.85218 15.592 4.47064 15.3107 4.18934C15.0294 3.90804 14.6478 3.75 14.25 3.75H9.75C9.35218 3.75 8.97064 3.90804 8.68934 4.18934C8.40804 4.47064 8.25 4.85218 8.25 5.25V6.75" stroke-width="1.5" stroke-linecap="round" stroke-linejoin="round"/>
            <path d="M3 15H21" stroke-width="1.5" stroke-linecap="round" stroke-linejoin="round"/>
        </symbol>

        <symbol id="icon-rocket" width="24" height="24" viewBox="0 0 24 24" fill="none" xmlns="http://www.w3.org/2000/svg">
            <path d="M13.5 21H10.5" stroke-width="1.5" stroke-linecap="round" stroke-linejoin="round"/>
            <path d="M11.5269 1.85217C9.74631 3.27849 3.79095 8.97802 8.99836 17.9994H14.9984C20.0975 8.98441 14.2292 3.28656 12.4674 1.8552C12.3346 1.74724 12.1688 1.68806 11.9977 1.6875C11.8265 1.68695 11.6603 1.74507 11.5269 1.85217V1.85217Z"  stroke-width="1.5" stroke-linecap="round" stroke-linejoin="round"/>
            <path d="M6.92541 10.4395L3.98633 13.9663C3.91292 14.0544 3.86069 14.1582 3.83365 14.2696C3.80661 14.3811 3.80548 14.4972 3.83036 14.6092L4.98938 19.8248C5.01701 19.9491 5.07585 20.0644 5.16034 20.1597C5.24484 20.255 5.35221 20.3272 5.47233 20.3695C5.59246 20.4118 5.72138 20.4228 5.84695 20.4015C5.97252 20.3802 6.09059 20.3273 6.19004 20.2477L9.00042 17.9994"  stroke-width="1.5" stroke-linecap="round" stroke-linejoin="round"/>
            <path d="M17.0186 10.373L20.0141 13.9677C20.0875 14.0558 20.1397 14.1595 20.1668 14.271C20.1938 14.3824 20.1949 14.4986 20.1701 14.6105L19.011 19.8261C18.9834 19.9504 18.9246 20.0657 18.8401 20.161C18.7556 20.2563 18.6482 20.3285 18.5281 20.3708C18.408 20.4131 18.279 20.4241 18.1535 20.4028C18.0279 20.3815 17.9098 20.3286 17.8104 20.2491L15 18.0008"  stroke-width="1.5" stroke-linecap="round" stroke-linejoin="round"/>
            <path d="M12 10.125C12.6213 10.125 13.125 9.62132 13.125 9C13.125 8.37868 12.6213 7.875 12 7.875C11.3787 7.875 10.875 8.37868 10.875 9C10.875 9.62132 11.3787 10.125 12 10.125Z" fill="#373943"/>
        </symbol>

        <symbol id="icon-sticker" width="24" height="24" viewBox="0 0 24 24" fill="none" xmlns="http://www.w3.org/2000/svg">
            <path d="M12.75 20.25H8.25C7.05653 20.25 5.91193 19.7759 5.06802 18.932C4.22411 18.0881 3.75 16.9435 3.75 15.75V8.25C3.75 7.05653 4.22411 5.91193 5.06802 5.06802C5.91193 4.22411 7.05653 3.75 8.25 3.75H15.75C16.9435 3.75 18.0881 4.22411 18.932 5.06802C19.7759 5.91193 20.25 7.05653 20.25 8.25V12.75C19.5 15 15 19.5 12.75 20.25Z"  stroke-width="1.5" stroke-linecap="round" stroke-linejoin="round"/>
            <path d="M12.75 20.25V17.25C12.75 16.0565 13.2241 14.9119 14.068 14.068C14.9119 13.2241 16.0565 12.75 17.25 12.75H20.25"  stroke-width="1.5" stroke-linecap="round" stroke-linejoin="round"/>
        </symbol>

        <symbol id="icon-info" width="24" height="24" viewBox="0 0 24 24" fill="none" xmlns="http://www.w3.org/2000/svg">
            <path d="M12 21C16.9706 21 21 16.9706 21 12C21 7.02944 16.9706 3 12 3C7.02944 3 3 7.02944 3 12C3 16.9706 7.02944 21 12 21Z"  stroke-width="1.5" stroke-linecap="round" stroke-linejoin="round"/>
            <path d="M11.25 11.25H12V16.5H12.75"  stroke-width="1.5" stroke-linecap="round" stroke-linejoin="round"/>
            <path d="M12 9C12.6213 9 13.125 8.49632 13.125 7.875C13.125 7.25368 12.6213 6.75 12 6.75C11.3787 6.75 10.875 7.25368 10.875 7.875C10.875 8.49632 11.3787 9 12 9Z" fill="#373943"/>
        </symbol>

        <symbol id="icon-headset" width="24" height="24" viewBox="0 0 24 24" fill="none" xmlns="http://www.w3.org/2000/svg">
            <path d="M21.1365 12H18.1365C17.7387 12 17.3571 12.158 17.0758 12.4393C16.7945 12.7207 16.6365 13.1022 16.6365 13.5V17.25C16.6365 17.6478 16.7945 18.0294 17.0758 18.3107C17.3571 18.592 17.7387 18.75 18.1365 18.75H19.6365C20.0343 18.75 20.4158 18.592 20.6971 18.3107C20.9784 18.0294 21.1365 17.6478 21.1365 17.25V12ZM21.1365 12C21.1365 10.8124 20.9014 9.63647 20.4449 8.5401C19.9883 7.44373 19.3192 6.44856 18.4763 5.61196C17.6333 4.77536 16.6331 4.11388 15.5333 3.66564C14.4335 3.21739 13.2558 2.99125 12.0682 3.00026C10.8806 2.99125 9.70299 3.21739 8.60319 3.66564C7.50339 4.11388 6.50318 4.77536 5.66021 5.61196C4.81725 6.44856 4.1482 7.44373 3.69163 8.5401C3.23506 9.63647 3 10.8124 3 12V17.25C3 17.6478 3.15804 18.0294 3.43934 18.3107C3.72064 18.592 4.10218 18.75 4.5 18.75H6C6.39782 18.75 6.77936 18.592 7.06066 18.3107C7.34196 18.0294 7.5 17.6478 7.5 17.25V13.5C7.5 13.1022 7.34196 12.7207 7.06066 12.4393C6.77936 12.158 6.39782 12 6 12H3"  stroke-width="1.5" stroke-linecap="round" stroke-linejoin="round"/>
            <path d="M21.1365 17.25V19.5C21.1365 20.2956 20.8204 21.0587 20.2578 21.6213C19.6952 22.1839 18.9321 22.5 18.1365 22.5H12.75"  stroke-width="1.5" stroke-linecap="round" stroke-linejoin="round"/>
        </symbol>

        <symbol id="icon-gearSix" width="24" height="24" viewBox="0 0 24 24" fill="none" xmlns="http://www.w3.org/2000/svg">
            <path d="M12 16.5C14.4853 16.5 16.5 14.4853 16.5 12C16.5 9.51472 14.4853 7.5 12 7.5C9.51472 7.5 7.5 9.51472 7.5 12C7.5 14.4853 9.51472 16.5 12 16.5Z"  stroke-width="1.5" stroke-linecap="round" stroke-linejoin="round"/>
            <path d="M4.90184 8.58439C5.07299 8.22944 5.27057 7.88785 5.49291 7.56251L5.45195 5.12951C5.45009 5.01782 5.47312 4.90712 5.51937 4.80544C5.56561 4.70375 5.63392 4.61364 5.71933 4.54164C6.5975 3.80078 7.59984 3.22114 8.67998 2.82953C8.78477 2.79179 8.89665 2.77786 9.0075 2.78875C9.11834 2.79964 9.22537 2.83508 9.32081 2.8925L11.4107 4.1465L11.4086 4.1452C11.8016 4.11594 12.1962 4.11626 12.5891 4.14613L14.6757 2.89417C14.7715 2.83672 14.8788 2.80131 14.99 2.79052C15.1012 2.77973 15.2134 2.79383 15.3185 2.83179C16.3992 3.22188 17.4023 3.80011 18.2815 4.53973C18.3666 4.61161 18.4346 4.70154 18.4806 4.80298C18.5266 4.90442 18.5494 5.01483 18.5474 5.12619L18.5064 7.56312L18.5064 7.56061C18.7282 7.8863 18.9253 8.2282 19.0959 8.58342L21.2234 9.76445C21.321 9.81868 21.4054 9.89398 21.4703 9.98487C21.5353 10.0758 21.5791 10.18 21.5988 10.2899C21.8011 11.4198 21.8021 12.5765 21.6018 13.7067C21.5822 13.817 21.5384 13.9214 21.4734 14.0126C21.4084 14.1037 21.3239 14.1792 21.2261 14.2336L19.0953 15.4164L19.0975 15.4152C18.9263 15.7702 18.7288 16.1118 18.5064 16.4371L18.48 16.5536L18.5474 18.8701C18.5492 18.9818 18.5262 19.0925 18.48 19.1942C18.4337 19.2958 18.3654 19.386 18.28 19.458C17.4018 20.1988 16.3995 20.7785 15.3194 21.1701C15.2146 21.2078 15.1027 21.2217 14.9918 21.2109C14.881 21.2 14.774 21.1645 14.6785 21.1071L12.5886 19.8531L12.5907 19.8544C12.1978 19.8837 11.8032 19.8833 11.4102 19.8535L9.32369 21.1054C9.22789 21.1629 9.1205 21.1983 9.00932 21.2091C8.89813 21.2199 8.78594 21.2058 8.68089 21.1678C7.60019 20.7777 6.59704 20.1995 5.71782 19.4599C5.63275 19.388 5.56475 19.2981 5.51876 19.1966C5.47277 19.0952 5.44995 18.9848 5.45195 18.8734L5.49297 16.4365L5.49293 16.439C5.2711 16.1133 5.07407 15.7714 4.90348 15.4162L2.77597 14.2351C2.67831 14.1809 2.59396 14.1056 2.52902 14.0147C2.46408 13.9238 2.4202 13.8196 2.40055 13.7097C2.19822 12.5798 2.19721 11.4231 2.39756 10.2929C2.4171 10.1826 2.46096 10.0782 2.52595 9.98705C2.59093 9.89592 2.67541 9.82041 2.77324 9.76603L4.90404 8.58317L4.90184 8.58439Z"  stroke-width="1.5" stroke-linecap="round" stroke-linejoin="round"/>
        </symbol>


        <symbol id="portfolio_figure_bottom_right" width="137" height="69" viewBox="0 0 137 69" fill="none" xmlns="http://www.w3.org/2000/svg">
            <path d="M68.5 -2.99423e-06C106.332 -1.34056e-06 137 30.6685 137 68.5L137 138L-6.03217e-06 138L-2.99423e-06 68.5C-1.34056e-06 30.6685 30.6685 -4.6479e-06 68.5 -2.99423e-06Z" fill="#199F27"/>
        </symbol>

        <symbol id="portfolio_figure_bottom_left" width="64" height="64" viewBox="0 0 64 64" fill="none" xmlns="http://www.w3.org/2000/svg">
            <circle cx="32" cy="32" r="32" fill="#3E54D8"/>
        </symbol>

        <symbol id="portfolio_figure_top_right" width="140" height="139" viewBox="0 0 140 139" fill="none" xmlns="http://www.w3.org/2000/svg">
            <path d="M0 69.5C0 31.1162 31.1162 0 69.5 0L140 0V139H69.5C31.1162 139 0 107.884 0 69.5Z" fill="#F3B63F"/>
        </symbol>

        <symbol id="portfolio_figure_top_left" width="192" height="192" viewBox="0 0 192 192" fill="none" xmlns="http://www.w3.org/2000/svg">
            <path d="M192 0C192 106.039 106.039 192 0 192L0 0L192 0Z" fill="#ED6373"/>
        </symbol>

        <symbol id="icon-signOut" width="24" height="24" viewBox="0 0 24 24" fill="none" xmlns="http://www.w3.org/2000/svg">
            <path d="M16.3135 8.0625L20.2499 12L16.3135 15.9375" stroke-width="1.5" stroke-linecap="round" stroke-linejoin="round"/>
            <path d="M9.75 12H20.2472" stroke-width="1.5" stroke-linecap="round" stroke-linejoin="round"/>
            <path d="M9.75 20.25H4.5C4.30109 20.25 4.11032 20.171 3.96967 20.0303C3.82902 19.8897 3.75 19.6989 3.75 19.5V4.5C3.75 4.30109 3.82902 4.11032 3.96967 3.96967C4.11032 3.82902 4.30109 3.75 4.5 3.75H9.75" stroke-width="1.5" stroke-linecap="round" stroke-linejoin="round"/>
        </symbol>

        <symbol id="icon-house" width="32" height="32" viewBox="0 0 32 32" fill="none" xmlns="http://www.w3.org/2000/svg">
            <path d="M18.9993 26.0002V20C18.9993 19.7348 18.8939 19.4805 18.7064 19.2929C18.5188 19.1054 18.2645 19 17.9993 19H13.9993C13.7341 19 13.4797 19.1054 13.2922 19.2929C13.1046 19.4805 12.9993 19.7348 12.9993 20V26.0002C12.9993 26.2654 12.8939 26.5197 12.7064 26.7072C12.5189 26.8948 12.2646 27.0001 11.9994 27.0002L6.00012 27.001C5.86879 27.001 5.73874 26.9751 5.6174 26.9249C5.49606 26.8746 5.38581 26.801 5.29294 26.7081C5.20007 26.6153 5.12639 26.505 5.07613 26.3837C5.02587 26.2623 5 26.1323 5 26.001V14.4434C5 14.3041 5.02911 14.1663 5.08547 14.0389C5.14183 13.9115 5.22418 13.7973 5.32726 13.7035L15.3266 4.61168C15.5106 4.44431 15.7505 4.35157 15.9993 4.35156C16.2481 4.35155 16.4879 4.44428 16.672 4.61164L26.6727 13.7035C26.7758 13.7972 26.8582 13.9115 26.9145 14.0389C26.9709 14.1663 27 14.3041 27 14.4434V26.001C27 26.1323 26.9741 26.2623 26.9239 26.3837C26.8736 26.505 26.7999 26.6153 26.7071 26.7081C26.6142 26.801 26.5039 26.8746 26.3826 26.9249C26.2613 26.9751 26.1312 27.001 25.9999 27.001L19.9991 27.0002C19.7339 27.0001 19.4796 26.8948 19.2921 26.7072C19.1046 26.5197 18.9993 26.2654 18.9993 26.0002V26.0002Z" stroke="white" stroke-width="2" stroke-linecap="round" stroke-linejoin="round"/>
        </symbol>

        <symbol id="icon-PlusCircle" width="32" height="32" viewBox="0 0 32 32" fill="none" xmlns="http://www.w3.org/2000/svg">
            <path d="M16 28C22.6274 28 28 22.6274 28 16C28 9.37258 22.6274 4 16 4C9.37258 4 4 9.37258 4 16C4 22.6274 9.37258 28 16 28Z" stroke-width="2" stroke-miterlimit="10"/>
            <path d="M11 16H21" stroke-width="2" stroke-linecap="round" stroke-linejoin="round"/>
            <path d="M16 11V21" stroke-width="2" stroke-linecap="round" stroke-linejoin="round"/>
        </symbol>

        <symbol id="icon-ShareNetwork" width="32" height="32" viewBox="0 0 32 32" fill="none" xmlns="http://www.w3.org/2000/svg">
            <path d="M8 20C10.2091 20 12 18.2091 12 16C12 13.7909 10.2091 12 8 12C5.79086 12 4 13.7909 4 16C4 18.2091 5.79086 20 8 20Z" stroke="#8C9BEA" stroke-width="2" stroke-linecap="round" stroke-linejoin="round"/>
            <path d="M22 29C24.2091 29 26 27.2091 26 25C26 22.7909 24.2091 21 22 21C19.7909 21 18 22.7909 18 25C18 27.2091 19.7909 29 22 29Z" stroke="#8C9BEA" stroke-width="2" stroke-linecap="round" stroke-linejoin="round"/>
            <path d="M22 11C24.2091 11 26 9.20914 26 7C26 4.79086 24.2091 3 22 3C19.7909 3 18 4.79086 18 7C18 9.20914 19.7909 11 22 11Z" stroke="#8C9BEA" stroke-width="2" stroke-linecap="round" stroke-linejoin="round"/>
            <path d="M18.6347 9.16211L11.3633 13.8366" stroke="#8C9BEA" stroke-width="2" stroke-linecap="round" stroke-linejoin="round"/>
            <path d="M11.3633 18.1621L18.6347 22.8366" stroke="#8C9BEA" stroke-width="2" stroke-linecap="round" stroke-linejoin="round"/>
        </symbol>

        <symbol id="icon-Printer" width="32" height="32" viewBox="0 0 32 32" fill="none" xmlns="http://www.w3.org/2000/svg">
            <path d="M8 10V5H24V10" stroke="#8C9BEA" stroke-width="2" stroke-linecap="round" stroke-linejoin="round"/>
            <path d="M24 19H8V27.5H24V19Z" stroke="#8C9BEA" stroke-width="2" stroke-linecap="round" stroke-linejoin="round"/>
            <path d="M8 22H3.5V12C3.5 10.8954 4.47005 10 5.66667 10H26.3333C27.53 10 28.5 10.8954 28.5 12V22H24" stroke="#8C9BEA" stroke-width="2" stroke-linecap="round" stroke-linejoin="round"/>
            <path d="M23.5 16C24.3284 16 25 15.3284 25 14.5C25 13.6716 24.3284 13 23.5 13C22.6716 13 22 13.6716 22 14.5C22 15.3284 22.6716 16 23.5 16Z" fill="#8C9BEA"/>
        </symbol>

        <symbol id="icon-facebook" width="32" height="32" viewBox="0 0 32 32" xmlns="http://www.w3.org/2000/svg">
            <g clip-path="url(#clip0)">
            <path d="M23.4462 18.001L24.3352 12.21H18.7782V8.45195C18.7782 6.86795 19.5542 5.32295 22.0432 5.32295H24.5692V0.392953C24.5692 0.392953 22.2772 0.00195312 20.0852 0.00195312C15.5092 0.00195312 12.5182 2.77595 12.5182 7.79695V12.211H7.43115V18.002H12.5182V32.002H18.7782V18.002L23.4462 18.001Z"/>
            </g>
            <defs>
            <clipPath id="clip0">
            <rect width="32" height="32" fill="white"/>
            </clipPath>
            </defs>
        </symbol>

        <symbol id="icon-telegram" width="40" height="40" viewBox="0 0 40 40" xmlns="http://www.w3.org/2000/svg">
            <path d="M37.399 7.70441L32.1177 32.6107C31.719 34.3682 30.6802 34.8057 29.204 33.9782L21.1565 28.0482L17.274 31.7832C16.844 32.2132 16.4852 32.5719 15.6565 32.5719L16.2352 24.3769L31.149 10.9007C31.7977 10.3232 31.0077 10.0019 30.1415 10.5807L11.704 22.1907L3.76649 19.7057C2.04024 19.1669 2.00899 17.9794 4.12649 17.1507L35.1727 5.18941C36.6102 4.65066 37.8677 5.50941 37.399 7.70566V7.70441Z"/>
        </symbol>

        <symbol id="icon-instagram" width="32" height="32" viewBox="0 0 32 32" xmlns="http://www.w3.org/2000/svg">
            <path d="M16 0C11.651 0 11.109 0.021 9.40695 0.093C7.69795 0.177 6.54195 0.442 5.52195 0.838C4.45442 1.24102 3.48762 1.87202 2.68895 2.687C1.8717 3.4838 1.24035 4.45113 0.839953 5.52C0.443953 6.54 0.178953 7.696 0.0949531 9.405C0.0179531 11.108 0.00195312 11.649 0.00195312 15.998C0.00195312 20.347 0.0229531 20.889 0.0949531 22.591C0.178953 24.295 0.443953 25.456 0.839953 26.476C1.24297 27.5435 1.87397 28.5103 2.68895 29.309C3.48575 30.1263 4.45309 30.7576 5.52195 31.158C6.54195 31.549 7.70295 31.819 9.40695 31.903C11.11 31.98 11.651 31.996 16 31.996C20.349 31.996 20.891 31.975 22.593 31.903C24.297 31.819 25.458 31.548 26.478 31.158C27.5455 30.755 28.5123 30.124 29.311 29.309C30.1293 28.5131 30.7608 27.5455 31.16 26.476C31.551 25.456 31.821 24.295 31.905 22.591C31.982 20.888 31.998 20.347 31.998 15.998C31.998 11.649 31.977 11.107 31.905 9.405C31.821 7.701 31.55 6.534 31.16 5.52C30.7569 4.45246 30.1259 3.48566 29.311 2.687C28.515 1.86869 27.5474 1.23718 26.478 0.838C25.458 0.442 24.297 0.177 22.593 0.093C20.89 0.016 20.349 0 16 0ZM16 2.88C20.271 2.88 20.781 2.901 22.469 2.973C24.026 3.046 24.874 3.306 25.437 3.526C26.133 3.78292 26.7629 4.19185 27.281 4.723C27.8112 5.23883 28.2186 5.86735 28.473 6.562C28.693 7.125 28.953 7.973 29.026 9.53C29.098 11.218 29.119 11.729 29.119 15.999C29.119 20.269 29.098 20.78 29.02 22.468C28.936 24.025 28.676 24.873 28.457 25.436C28.154 26.187 27.816 26.712 27.258 27.28C26.7382 27.8078 26.1086 28.2148 25.414 28.472C24.858 28.692 23.998 28.952 22.435 29.025C20.738 29.097 20.238 29.118 15.956 29.118C11.674 29.118 11.175 29.097 9.47595 29.019C7.91895 28.935 7.05995 28.675 6.49695 28.456C5.73695 28.153 5.21595 27.815 4.65795 27.257C4.09495 26.694 3.73695 26.158 3.46095 25.413C3.23695 24.857 2.98095 23.997 2.89795 22.434C2.84095 20.757 2.81395 20.237 2.81395 15.975C2.81395 11.715 2.84095 11.194 2.89795 9.496C2.98095 7.933 3.23695 7.075 3.46095 6.517C3.73695 5.756 4.09595 5.236 4.65795 4.673C5.21495 4.116 5.73695 3.756 6.49695 3.474C7.05995 3.255 7.89795 2.995 9.46095 2.917C11.158 2.856 11.658 2.834 15.934 2.834L16 2.88ZM16 7.787C14.9213 7.78661 13.8531 7.99877 12.8565 8.41137C11.8599 8.82398 10.9543 9.42893 10.1916 10.1917C9.42888 10.9544 8.82393 11.8599 8.41133 12.8566C7.99872 13.8532 7.78656 14.9213 7.78695 16C7.78656 17.0787 7.99872 18.1468 8.41133 19.1434C8.82393 20.1401 9.42888 21.0456 10.1916 21.8083C10.9543 22.5711 11.8599 23.176 12.8565 23.5886C13.8531 24.0012 14.9213 24.2134 16 24.213C17.0786 24.2134 18.1468 24.0012 19.1434 23.5886C20.14 23.176 21.0456 22.5711 21.8083 21.8083C22.571 21.0456 23.176 20.1401 23.5886 19.1434C24.0012 18.1468 24.2133 17.0787 24.213 16C24.2133 14.9213 24.0012 13.8532 23.5886 12.8566C23.176 11.8599 22.571 10.9544 21.8083 10.1917C21.0456 9.42893 20.14 8.82398 19.1434 8.41137C18.1468 7.99877 17.0786 7.78661 16 7.787ZM16 21.333C13.052 21.333 10.667 18.948 10.667 16C10.667 13.052 13.052 10.667 16 10.667C18.948 10.667 21.333 13.052 21.333 16C21.333 18.948 18.948 21.333 16 21.333ZM26.464 7.459C26.4634 7.96866 26.2606 8.45727 25.9 8.81747C25.5394 9.17767 25.0506 9.38 24.541 9.38C24.2889 9.38 24.0394 9.33036 23.8066 9.23392C23.5738 9.13749 23.3622 8.99613 23.184 8.81794C23.0058 8.63974 22.8645 8.42819 22.768 8.19537C22.6716 7.96255 22.622 7.71301 22.622 7.461C22.622 7.20899 22.6716 6.95945 22.768 6.72663C22.8645 6.49381 23.0058 6.28226 23.184 6.10406C23.3622 5.92587 23.5738 5.78451 23.8066 5.68808C24.0394 5.59164 24.2889 5.542 24.541 5.542C25.598 5.542 26.464 6.402 26.464 7.459Z"/>
        </symbol>

        <symbol id="icon-twitter" width="32" height="32" viewBox="0 0 32 32" xmlns="http://www.w3.org/2000/svg">
            <g clip-path="url(#clip0)">
            <path d="M31.937 6.09348C30.7394 6.61999 29.4708 6.9677 28.172 7.12548C29.5411 6.30378 30.566 5.01383 31.057 3.49448C29.7621 4.24549 28.3527 4.77891 26.885 5.07348C25.8981 4.01894 24.5907 3.31961 23.1657 3.08398C21.7407 2.84836 20.2777 3.08961 19.0039 3.77032C17.73 4.45103 16.7163 5.53313 16.1202 6.84873C15.5241 8.16434 15.3789 9.6399 15.707 11.0465C10.254 10.7915 5.42005 8.17148 2.18705 4.21348C1.59852 5.21437 1.29072 6.35541 1.29605 7.51648C1.29524 8.59585 1.56099 9.65871 2.06969 10.6107C2.57838 11.5627 3.31429 12.3743 4.21205 12.9735C3.17167 12.942 2.15396 12.6619 1.24405 12.1565V12.2355C1.24373 13.7505 1.76726 15.219 2.7259 16.3922C3.68455 17.5653 5.01933 18.371 6.50405 18.6725C5.94164 18.8228 5.36218 18.8997 4.78005 18.9015C4.35905 18.9015 3.95705 18.8605 3.55605 18.7865C3.97858 20.0902 4.79705 21.2298 5.89756 22.0465C6.99806 22.8633 8.32583 23.3167 9.69605 23.3435C7.37446 25.1616 4.50983 26.1479 1.56105 26.1445C1.03875 26.1466 0.516808 26.1172 -0.00195312 26.0565C3.00614 27.9839 6.50441 29.0072 10.077 29.0045C22.144 29.0045 28.738 19.0095 28.738 10.3535C28.738 10.0775 28.738 9.79648 28.717 9.51448C30.0069 8.59003 31.1186 7.43943 31.998 6.11848L31.937 6.09348Z"/>
            </g>
            <defs>
            <clipPath id="clip0">
            <rect width="32" height="32" fill="white"/>
            </clipPath>
            </defs>
        </symbol>

        <symbol id="icon-link" width="32" height="32" viewBox="0 0 32 32" xmlns="http://www.w3.org/2000/svg">
            <path d="M15.2931 8.9294L17.768 6.45452C18.2786 5.94341 18.8849 5.53791 19.5523 5.26119C20.2197 4.98448 20.9351 4.84197 21.6576 4.8418C22.3801 4.84163 23.0955 4.98381 23.763 5.26021C24.4305 5.53662 25.0371 5.94183 25.5479 6.45271C26.0588 6.96358 26.464 7.57011 26.7404 8.23763C27.0168 8.90515 27.159 9.62059 27.1589 10.3431C27.1587 11.0656 27.0162 11.7809 26.7395 12.4483C26.4627 13.1157 26.0572 13.7221 25.5461 14.2327L22.0106 17.7682C21.4999 18.279 20.8936 18.6841 20.2263 18.9605C19.559 19.2369 18.8438 19.3791 18.1215 19.3791C17.3992 19.3791 16.684 19.2369 16.0167 18.9605C15.3495 18.6841 14.7431 18.279 14.2324 17.7682" stroke-width="2" stroke-linecap="round" stroke-linejoin="round"/>
            <path d="M16.7076 23.0708L14.2327 25.5457C13.7221 26.0568 13.1157 26.4623 12.4483 26.739C11.7809 27.0158 11.0656 27.1583 10.3431 27.1584C9.62059 27.1586 8.90515 27.0164 8.23763 26.74C7.57011 26.4636 6.96358 26.0584 6.45271 25.5475C5.94183 25.0367 5.53662 24.4301 5.26021 23.7626C4.98381 23.0951 4.84163 22.3796 4.8418 21.6572C4.84197 20.9347 4.98448 20.2193 5.26119 19.5519C5.53791 18.8845 5.94341 18.2782 6.45452 17.7675L9.99005 14.232C10.5008 13.7213 11.1071 13.3162 11.7744 13.0398C12.4417 12.7634 13.1569 12.6211 13.8791 12.6211C14.6014 12.6211 15.3166 12.7634 15.9839 13.0398C16.6512 13.3162 17.2575 13.7213 17.7682 14.232" stroke-width="2" stroke-linecap="round" stroke-linejoin="round"/>
        </symbol>

        <symbol id="icon-arrow-down" width="10" height="10" viewBox="0 0 10 10" xmlns="http://www.w3.org/2000/svg">
            <path d="M4.63975 7.338C4.67989 7.38796 4.7336 7.42881 4.79626 7.45703C4.85891 7.48525 4.92863 7.5 4.99941 7.5C5.07019 7.5 5.13991 7.48525 5.20256 7.45703C5.26521 7.42881 5.31892 7.38796 5.35906 7.338L9.29687 2.46333C9.34245 2.40711 9.36918 2.34125 9.37415 2.27292C9.37913 2.20459 9.36215 2.1364 9.32508 2.07576C9.28801 2.01511 9.23225 1.96434 9.16387 1.92894C9.09549 1.89355 9.0171 1.87489 8.93721 1.875H1.0616C0.981899 1.87528 0.903797 1.89418 0.835691 1.92966C0.767586 1.96514 0.712054 2.01585 0.675067 2.07636C0.638081 2.13686 0.621039 2.20486 0.625775 2.27305C0.630511 2.34123 0.656845 2.40702 0.701945 2.46333L4.63975 7.338Z"/>
        </symbol>

        <symbol id="icon-dottes" width="25" height="5" viewBox="0 0 25 5" fill="none" xmlns="http://www.w3.org/2000/svg">
            <circle cx="2.5" cy="2.5" r="2.5" fill="#3E54D8"/>
            <circle cx="12.5" cy="2.5" r="2.5" fill="#3E54D8"/>
            <circle cx="22.5" cy="2.5" r="2.5" fill="#3E54D8"/>
        </symbol>

        <symbol id="icon-ArrowsOutCardinal" width="32" height="32" viewBox="0 0 32 32" fill="none" xmlns="http://www.w3.org/2000/svg">
            <path d="M19.5358 25.4648L16.0003 29.0003L12.4648 25.4648"  stroke-width="2" stroke-linecap="round" stroke-linejoin="round"/>
            <path d="M16 20V29"  stroke-width="2" stroke-linecap="round" stroke-linejoin="round"/>
            <path d="M12.4648 6.5355L16.0003 3L19.5358 6.5355"  stroke-width="2" stroke-linecap="round" stroke-linejoin="round"/>
            <path d="M16 12V3"  stroke-width="2" stroke-linecap="round" stroke-linejoin="round"/>
            <path d="M6.5355 19.5358L3 16.0003L6.5355 12.4648"  stroke-width="2" stroke-linecap="round" stroke-linejoin="round"/>
            <path d="M12 16H3"  stroke-width="2" stroke-linecap="round" stroke-linejoin="round"/>
            <path d="M25.4648 12.4648L29.0003 16.0003L25.4648 19.5358"  stroke-width="2" stroke-linecap="round" stroke-linejoin="round"/>
            <path d="M20 16H29" stroke-width="2" stroke-linecap="round" stroke-linejoin="round"/>
        </symbol>

        <symbol id="icon-strategy-sprite-red" width="130" height="260" viewBox="0 0 130 260" fill="none" xmlns="http://www.w3.org/2000/svg">
            <path d="M-130 130C-130 58.203 -71.797 0 0 0C71.797 0 130 58.203 130 130C130 201.797 71.797 260 0 260H-130L-130 130Z" fill="#ED6373"/>
        </symbol>

        <symbol id="icon-strategy-sprite-green" width="126" height="126" viewBox="0 0 126 126" fill="none" xmlns="http://www.w3.org/2000/svg">
            <path d="M0 124C0 55.5167 55.5167 0 124 0L252 0L252 252H124C55.5167 252 0 196.483 0 128L0 124Z" fill="#199F27"/>
        </symbol>
        
        <symbol id="icon-search" width="24" height="24" viewBox="0 0 24 24" fill="none" xmlns="http://www.w3.org/2000/svg">
            <path d="M10.875 18.75C15.2242 18.75 18.75 15.2242 18.75 10.875C18.75 6.52576 15.2242 3 10.875 3C6.52576 3 3 6.52576 3 10.875C3 15.2242 6.52576 18.75 10.875 18.75Z" stroke="#3E54D8" stroke-width="1.5" stroke-linecap="round" stroke-linejoin="round"/>
            <path d="M16.4414 16.4434L20.9977 20.9997" stroke="#3E54D8" stroke-width="1.5" stroke-linecap="round" stroke-linejoin="round"/>
        </symbol>

        <symbol id="icon-pencil" width="24" height="24" viewBox="0 0 24 24" fill="none" xmlns="http://www.w3.org/2000/svg">
            <path d="M8.68934 20.2499H4.5C4.30109 20.2499 4.11032 20.1709 3.96967 20.0302C3.82902 19.8896 3.75 19.6988 3.75 19.4999V15.3105C3.75 15.2121 3.7694 15.1145 3.80709 15.0235C3.84478 14.9325 3.90003 14.8499 3.96967 14.7802L15.2197 3.53022C15.3603 3.38956 15.5511 3.31055 15.75 3.31055C15.9489 3.31055 16.1397 3.38956 16.2803 3.53022L20.4697 7.71956C20.6103 7.86021 20.6893 8.05097 20.6893 8.24989C20.6893 8.4488 20.6103 8.63956 20.4697 8.78022L9.21967 20.0302C9.15003 20.0999 9.06735 20.1551 8.97635 20.1928C8.88536 20.2305 8.78783 20.2499 8.68934 20.2499Z" stroke-width="1.5" stroke-linecap="round" stroke-linejoin="round"/>
            <path d="M12.75 6L18 11.25"  stroke-width="1.5" stroke-linecap="round" stroke-linejoin="round"/>
            <path d="M8.95321 20.2013L3.79883 15.0469"  stroke-width="1.5" stroke-linecap="round" stroke-linejoin="round"/>
        </symbol>

        <symbol id="icon-trash" width="24" height="24" viewBox="0 0 24 24" fill="none" xmlns="http://www.w3.org/2000/svg">
            <path d="M20.25 5.25L3.75 5.25" stroke-width="1.5" stroke-linecap="round" stroke-linejoin="round"/>
            <path d="M9.75 9.75V15.75" stroke-width="1.5" stroke-linecap="round" stroke-linejoin="round"/>
            <path d="M14.25 9.75V15.75" stroke-width="1.5" stroke-linecap="round" stroke-linejoin="round"/>
            <path d="M18.75 5.25V19.5C18.75 19.6989 18.671 19.8897 18.5303 20.0303C18.3897 20.171 18.1989 20.25 18 20.25H6C5.80109 20.25 5.61032 20.171 5.46967 20.0303C5.32902 19.8897 5.25 19.6989 5.25 19.5V5.25" stroke-width="1.5" stroke-linecap="round" stroke-linejoin="round"/>
            <path d="M15.75 5.25V3.75C15.75 3.35218 15.592 2.97064 15.3107 2.68934C15.0294 2.40804 14.6478 2.25 14.25 2.25H9.75C9.35218 2.25 8.97064 2.40804 8.68934 2.68934C8.40804 2.97064 8.25 3.35218 8.25 3.75V5.25" stroke-width="1.5" stroke-linecap="round" stroke-linejoin="round"/>
        </symbol>

        <symbol id="icon-caret-pagination" width="16" height="16" viewBox="0 0 16 16" fill="none" xmlns="http://www.w3.org/2000/svg">
            <path d="M6 13L11 8L6 3" stroke-width="2.5" stroke-linecap="round" stroke-linejoin="round"/>
        </symbol>


    </defs>
</svg>